<svg xmlns="http://www.w3.org/2000/svg" width="34.66" height="22.643" viewBox="0 0 34.66 22.643">
  <path id="Tracé_376" data-name="Tracé 376" d="M33.71,13.447a1.788,1.788,0,0,1-1.611-.6,2.019,2.019,0,0,1-.34-1.843.6.6,0,0,0-.318-.731c-2.671-1.352-4.211.074-5.571,1.331a5.585,5.585,0,0,1-3.129,1.839,1.778,1.778,0,0,1-1.609-.6,1.989,1.989,0,0,1-.339-1.843.605.605,0,0,0-.32-.731,4.692,4.692,0,0,0-1.805-.539c-1.625-.113-2.747.926-3.768,1.87a5.578,5.578,0,0,1-3.127,1.839,1.779,1.779,0,0,1-1.609-.6,1.989,1.989,0,0,1-.339-1.843.606.606,0,0,0-.319-.731c-2.67-1.352-4.211.074-5.572,1.331A5.578,5.578,0,0,1,.807,13.449a.625.625,0,1,0,.136,1.244,6.731,6.731,0,0,0,3.841-2.164C6,11.408,6.9,10.579,8.517,11.207a3.177,3.177,0,0,0,.691,2.452,2.99,2.99,0,0,0,2.323,1.055q.156,0,.311-.018a.646.646,0,0,0,.07,0,6.738,6.738,0,0,0,3.841-2.164c1.208-1.118,2.112-1.944,3.722-1.326l.01.005a3.178,3.178,0,0,0,.692,2.451A2.989,2.989,0,0,0,22.5,14.715a3.512,3.512,0,0,0,.378-.021,6.729,6.729,0,0,0,3.843-2.164c1.211-1.121,2.117-1.95,3.732-1.321a3.183,3.183,0,0,0,.693,2.452,2.991,2.991,0,0,0,2.323,1.055,3.254,3.254,0,0,0,.379-.021.627.627,0,0,0-.138-1.246Zm0,8.582a1.789,1.789,0,0,1-1.611-.6,2.018,2.018,0,0,1-.34-1.843.6.6,0,0,0-.318-.731c-2.671-1.352-4.211.074-5.571,1.332a5.583,5.583,0,0,1-3.129,1.838,1.775,1.775,0,0,1-1.609-.6,1.988,1.988,0,0,1-.339-1.843.607.607,0,0,0-.32-.731,4.688,4.688,0,0,0-1.805-.538c-1.625-.113-2.747.926-3.768,1.87a5.576,5.576,0,0,1-3.127,1.838,1.776,1.776,0,0,1-1.609-.6,1.988,1.988,0,0,1-.339-1.843.608.608,0,0,0-.319-.731c-2.67-1.351-4.211.074-5.572,1.332A5.576,5.576,0,0,1,.807,22.029a.625.625,0,1,0,.136,1.244A6.722,6.722,0,0,0,4.784,21.11C6,19.989,6.9,19.159,8.517,19.789a3.172,3.172,0,0,0,.691,2.451A2.99,2.99,0,0,0,11.53,23.3q.156,0,.311-.018a.646.646,0,0,0,.07,0,6.731,6.731,0,0,0,3.841-2.164c1.208-1.117,2.112-1.943,3.722-1.325l.01,0a3.181,3.181,0,0,0,.692,2.452A2.992,2.992,0,0,0,22.5,23.3a3.512,3.512,0,0,0,.378-.021,6.728,6.728,0,0,0,3.843-2.163c1.211-1.121,2.117-1.95,3.732-1.322a3.182,3.182,0,0,0,.693,2.452A2.991,2.991,0,0,0,33.468,23.3a3.548,3.548,0,0,0,.379-.02.627.627,0,0,0-.138-1.246Zm0-17.162a1.789,1.789,0,0,1-1.611-.6,2.018,2.018,0,0,1-.34-1.843.6.6,0,0,0-.318-.729C28.77.344,27.23,1.771,25.87,3.028a5.578,5.578,0,0,1-3.129,1.839,1.775,1.775,0,0,1-1.609-.6,1.988,1.988,0,0,1-.339-1.843.6.6,0,0,0-.32-.729,4.648,4.648,0,0,0-1.805-.539c-1.625-.113-2.747.926-3.768,1.869a5.571,5.571,0,0,1-3.127,1.839,1.776,1.776,0,0,1-1.609-.6,1.988,1.988,0,0,1-.339-1.843A.605.605,0,0,0,9.506,1.7C6.837.344,5.3,1.769,3.934,3.027A5.571,5.571,0,0,1,.807,4.866.625.625,0,1,0,.943,6.109,6.729,6.729,0,0,0,4.784,3.946C6,2.825,6.9,2,8.517,2.624a3.177,3.177,0,0,0,.691,2.452A2.99,2.99,0,0,0,11.53,6.132q.156,0,.311-.018a.646.646,0,0,0,.07,0,6.731,6.731,0,0,0,3.841-2.164C16.961,2.829,17.864,2,19.474,2.621l.01,0a3.181,3.181,0,0,0,.692,2.452A2.988,2.988,0,0,0,22.5,6.132a3.508,3.508,0,0,0,.378-.02A6.736,6.736,0,0,0,26.72,3.947C27.931,2.826,28.836,2,30.451,2.625a3.182,3.182,0,0,0,.693,2.452,2.991,2.991,0,0,0,2.323,1.055,3.549,3.549,0,0,0,.379-.02.627.627,0,1,0-.138-1.246Z" transform="translate(0.001 -0.903)" fill="#ffce00" stroke="#ffce00" stroke-width="0.5"/>
</svg>
