<svg xmlns="http://www.w3.org/2000/svg" width="97.37" height="74.671" viewBox="0 0 97.37 74.671">
  <g id="pelle-de-chantier" transform="translate(0 -92.332)">
    <g id="Groupe_22" data-name="Groupe 22" transform="translate(0 92.332)">
      <path id="Tracé_22" data-name="Tracé 22" d="M280,634.441a1.827,1.827,0,1,0-1.829-1.827A1.829,1.829,0,0,0,280,634.441Z" transform="translate(-243.98 -564.599)" fill="#fece2f"/>
      <path id="Tracé_23" data-name="Tracé 23" d="M181.757,635.77a1.61,1.61,0,1,0-1.609-1.61A1.613,1.613,0,0,0,181.757,635.77Z" transform="translate(-158.004 -566.145)" fill="#fece2f"/>
      <path id="Tracé_24" data-name="Tracé 24" d="M385.621,635.77a1.61,1.61,0,1,0-1.609-1.61A1.613,1.613,0,0,0,385.621,635.77Z" transform="translate(-336.809 -566.145)" fill="#fece2f"/>
      <path id="Tracé_25" data-name="Tracé 25" d="M72.037,635.77a1.61,1.61,0,1,0-1.609-1.61A1.612,1.612,0,0,0,72.037,635.77Z" transform="translate(-61.771 -566.145)" fill="#fece2f"/>
      <path id="Tracé_26" data-name="Tracé 26" d="M65.193,604.818v-.441a6.265,6.265,0,0,0,0-12.431v-.44H5.482v.44a6.265,6.265,0,0,0,0,12.431v.441Zm-54.927-9.833a3.175,3.175,0,0,1,3.068,2.394h7.353a3.162,3.162,0,0,1,6.135,0h5.907a3.383,3.383,0,0,1,6.588,0h6.43a3.162,3.162,0,0,1,6.134,0h6.525a3.176,3.176,0,1,1,0,1.566H51.88a3.162,3.162,0,0,1-6.134,0h-6.43a3.383,3.383,0,0,1-6.588,0H26.821a3.162,3.162,0,0,1-6.135,0H13.334a3.171,3.171,0,1,1-3.068-3.96Z" transform="translate(0 -530.147)" fill="#4a4a4a"/>
      <path id="Tracé_27" data-name="Tracé 27" d="M488.6,635.77a1.61,1.61,0,1,0-1.612-1.61A1.611,1.611,0,0,0,488.6,635.77Z" transform="translate(-427.128 -566.145)" fill="#fece2f"/>
      <path id="Tracé_28" data-name="Tracé 28" d="M144.606,369.08l-5.283-9.2H122.594V368.3l-9.245.392v-2.154l-12.334-.2V368.3H96.622v5.545H113.35v2.285H96.622v7.165h47.984V369.08Zm-3.325,4.762h-15.6V362.648h11.683l3.916,5.6Z" transform="translate(-84.745 -326.989)" fill="#fece2f"/>
      <path id="Tracé_29" data-name="Tracé 29" d="M344.531,133.618l16.054-12.138v-6.852l-19.667,11.746-7.874,16.054h11.487Z" transform="translate(-292.106 -111.887)" fill="#4a4a4a"/>
      <path id="Tracé_30" data-name="Tracé 30" d="M600.565,133.249,578.051,92.332l-3.09,2.741v5.678l20.122,32.5Z" transform="translate(-504.286 -92.332)" fill="#fece2f"/>
      <path id="Tracé_31" data-name="Tracé 31" d="M674.375,455.126c.131,11.389-10.572,11.709-10.572,11.709,21.734,8.536,14.683-11.709,14.683-11.709Z" transform="translate(-582.208 -410.531)" fill="#4a4a4a"/>
    </g>
  </g>
</svg>
