<svg id="piscine" xmlns="http://www.w3.org/2000/svg" width="84.17" height="79.962" viewBox="0 0 84.17 79.962">
  <path id="Tracé_1" data-name="Tracé 1" d="M14.142,56.733l3.552-1.959A5.271,5.271,0,0,1,22.8,54.8l3.324,1.879a10.674,10.674,0,0,0,10.34.053l3.552-1.959a5.273,5.273,0,0,1,5.108.026l3.323,1.879a10.676,10.676,0,0,0,10.341.053l3.552-1.959a5.271,5.271,0,0,1,5.107.026l3.323,1.879a10.676,10.676,0,0,0,10.341.053l3.556-1.961-2.6-4.164L78.518,52.57a5.264,5.264,0,0,1-5.1-.026l-3.324-1.879a10.691,10.691,0,0,0-8.8-.75V12.98a8.433,8.433,0,0,1,8.67-8.154h4.351V0H69.965c-7.61,0-13.8,5.823-13.8,12.98v3.945H34.64V12.98a8.433,8.433,0,0,1,8.67-8.154H47.66V0H43.309c-7.611,0-13.8,5.823-13.8,12.98v39.9a5.164,5.164,0,0,1-.738-.341l-3.323-1.879A10.681,10.681,0,0,0,15.1,50.611L11.546,52.57a5.264,5.264,0,0,1-5.1-.026l-3.3-1.867L.5,54.813,3.8,56.68A10.675,10.675,0,0,0,14.142,56.733Zm36.952-4.19L47.77,50.664a10.681,10.681,0,0,0-10.348-.053L34.64,52.145V39.023H56.164V52.585A5.263,5.263,0,0,1,51.094,52.543Zm5.069-30.791V34.2H34.64V21.752Zm0,0" transform="translate(-0.5)" fill="#46b3bc"/>
  <path id="Tracé_3" data-name="Tracé 3" d="M78.518,460.931a5.263,5.263,0,0,1-5.1-.026l-3.324-1.879a10.679,10.679,0,0,0-10.348-.054l-3.552,1.96a5.263,5.263,0,0,1-5.1-.026l-3.324-1.879a10.681,10.681,0,0,0-10.348-.054l-3.552,1.96a5.265,5.265,0,0,1-5.1-.026l-3.324-1.879a10.681,10.681,0,0,0-10.348-.054l-3.552,1.96a5.265,5.265,0,0,1-5.1-.026l-3.3-1.867L.5,463.174l3.3,1.867a10.677,10.677,0,0,0,10.34.053l3.552-1.959a5.273,5.273,0,0,1,5.107.026l3.324,1.88a10.675,10.675,0,0,0,10.34.053l3.552-1.959a5.274,5.274,0,0,1,5.108.026l3.323,1.88a10.678,10.678,0,0,0,10.341.053l3.552-1.959a5.273,5.273,0,0,1,5.107.026l3.323,1.88a10.676,10.676,0,0,0,10.341.053l3.556-1.961-2.6-4.164Zm0,0" transform="translate(-0.5 -397.402)" fill="#064a57"/>
  <path id="Tracé_9" data-name="Tracé 9" d="M78.518,460.931a5.263,5.263,0,0,1-5.1-.026l-3.324-1.879a10.679,10.679,0,0,0-10.348-.054l-3.552,1.96a5.263,5.263,0,0,1-5.1-.026l-3.324-1.879a10.681,10.681,0,0,0-10.348-.054l-3.552,1.96a5.265,5.265,0,0,1-5.1-.026l-3.324-1.879a10.681,10.681,0,0,0-10.348-.054l-3.552,1.96a5.265,5.265,0,0,1-5.1-.026l-3.3-1.867L.5,463.174l3.3,1.867a10.677,10.677,0,0,0,10.34.053l3.552-1.959a5.273,5.273,0,0,1,5.107.026l3.324,1.88a10.675,10.675,0,0,0,10.34.053l3.552-1.959a5.274,5.274,0,0,1,5.108.026l3.323,1.88a10.678,10.678,0,0,0,10.341.053l3.552-1.959a5.273,5.273,0,0,1,5.107.026l3.323,1.88a10.676,10.676,0,0,0,10.341.053l3.556-1.961-2.6-4.164Zm0,0" transform="translate(-0.5 -386.442)" fill="#46b3bc"/>
</svg>
