<svg xmlns="http://www.w3.org/2000/svg" width="22.314" height="22.449" viewBox="0 0 22.314 22.449">
  <path id="linkedin_5_" data-name="linkedin (5)" d="M22.724,2H3.71A1.628,1.628,0,0,0,2.06,3.605V22.843a1.628,1.628,0,0,0,1.65,1.605H22.724a1.628,1.628,0,0,0,1.65-1.605V3.605A1.628,1.628,0,0,0,22.724,2ZM8.828,20.789H5.461v-10.1H8.828ZM7.145,9.273h0a1.751,1.751,0,0,1,0-3.5,1.762,1.762,0,1,1,0,3.5ZM20.973,20.789H17.606V15.368c0-1.358-.483-2.245-1.706-2.245a1.852,1.852,0,0,0-1.729,1.223,2.245,2.245,0,0,0-.112.819v5.612H10.691v-10.1h3.367V12.1A3.367,3.367,0,0,1,17.1,10.418c2.245,0,3.872,1.448,3.872,4.557Z" transform="translate(-2.06 -2)" fill="#f4f4f4"/>
</svg>
