<svg xmlns="http://www.w3.org/2000/svg" width="22.454" height="22.449" viewBox="0 0 22.454 22.449">
  <path id="instagram" d="M11.155,37.294A5.756,5.756,0,1,0,16.91,43.05,5.747,5.747,0,0,0,11.155,37.294Zm0,9.5A3.742,3.742,0,1,1,14.9,43.05,3.749,3.749,0,0,1,11.155,46.791Zm7.334-9.733a1.342,1.342,0,1,1-1.342-1.342A1.339,1.339,0,0,1,18.488,37.058ZM22.3,38.421a6.644,6.644,0,0,0-1.813-4.7,6.687,6.687,0,0,0-4.7-1.813c-1.853-.105-7.409-.105-9.262,0a6.678,6.678,0,0,0-4.7,1.808A6.665,6.665,0,0,0,0,38.416C-.1,40.269-.1,45.825,0,47.678a6.644,6.644,0,0,0,1.813,4.7,6.7,6.7,0,0,0,4.7,1.813c1.853.105,7.409.105,9.262,0a6.644,6.644,0,0,0,4.7-1.813,6.687,6.687,0,0,0,1.813-4.7C22.405,45.825,22.405,40.274,22.3,38.421ZM19.906,49.667A3.788,3.788,0,0,1,17.772,51.8c-1.478.586-4.984.451-6.617.451s-5.145.13-6.617-.451A3.788,3.788,0,0,1,2.4,49.667c-.586-1.478-.451-4.984-.451-6.617s-.13-5.145.451-6.617A3.788,3.788,0,0,1,4.537,34.3c1.478-.586,4.984-.451,6.617-.451s5.145-.13,6.617.451a3.788,3.788,0,0,1,2.134,2.134c.586,1.478.451,4.984.451,6.617S20.492,48.194,19.906,49.667Z" transform="translate(0.075 -31.825)" fill="#f4f4f4"/>
</svg>
