<svg xmlns="http://www.w3.org/2000/svg" xmlns:xlink="http://www.w3.org/1999/xlink" width="197.784" height="48.769" viewBox="0 0 197.784 48.769">
  <defs>
    <clipPath id="clip-path">
      <rect id="Rectangle_308" data-name="Rectangle 308" width="197.784" height="48.769" fill="none"/>
    </clipPath>
  </defs>
  <g id="Groupe_401" data-name="Groupe 401" transform="translate(0 0)">
    <g id="Groupe_400" data-name="Groupe 400" transform="translate(0 0)" clip-path="url(#clip-path)">
      <path id="Tracé_378" data-name="Tracé 378" d="M123.278,27.044c.851.009,1.7.062,2.551.014.773-.044.933.366.918.99.431,2.508-.351,3.507-2.807,3.582-3.4.1-3.429.1-4.187,3.464-.186.823-.9,1.776.21,2.522,2.952.558,5.246-.786,6-3.539.2-.722.482-1.419.609-2.158a14.2,14.2,0,0,1,.992-2.926,1.116,1.116,0,0,0,.352-.106c.7-.52.347-1.9,1.667-1.943,2.582-.08,5.173-.481,7.717.294.086.026.083.34.122.52.337.918-.169,1.7-.452,2.5-.642,1.813-1.412,3.579-2.119,5.369a2.5,2.5,0,0,0,.077,2.643,3.654,3.654,0,0,0,4.564-2.334c1.524-5.129,3.089-10.242,4.856-15.3a2.786,2.786,0,0,1,2.856-2.136,27.82,27.82,0,0,1,5.252.134c.563.086,1.168.077,1.117.9.433,1.034-.087,1.962-.384,2.886-1.336,4.157-2.865,8.247-4.324,12.362-.361,1.019-1.045,2.051-.288,3.188,2.343.3,3.044-.087,3.739-2.113a11.567,11.567,0,0,1,7.046-7.305,33.759,33.759,0,0,1,17.173-1.926,3.637,3.637,0,0,1,3,1.655c.774,1.194.28,2.392-.016,3.573a30.883,30.883,0,0,1-1.642,4.324c-.18.431-.8,1,.171,1.314,1.809.236,2.744-.54,3.193-2.324.605-2.41,1.476-4.752,2.2-7.134a1.751,1.751,0,0,1,1.922-1.393c1.567.028,3.133-.006,4.7-.009.716,0,1.437,0,1.454,1,.405.326-.581,1.61.854,1.226,2.581-1.6,5.232-2.969,8.41-2.809,1.972.1,3.684.646,4.693,2.508,1.175,2.309.2,4.454-.467,6.642-.228.748-1.064,1.549-.066,2.356.789-.075,1.561.054,1.829-1.117.966-4.22,3.959-6.664,7.742-8.321a27.934,27.934,0,0,1,10.468-2.03c1.07-.034,1.621-.331,1.828-1.376a8.776,8.776,0,0,1,.642-1.949c.639-1.384.492-3.462,2.014-4.033,2.228-.835,4.713-.44,7.1-.328.561.026.515.64.782.958-.3,2.747-1.376,5.288-2.165,7.9-1.043,3.456-2.315,6.841-3.383,10.29a6.806,6.806,0,0,1-8.9,4.5,1.673,1.673,0,0,1-1.147-1.547c-.14-.6-.169-1.123-1.06-.525-3.134,2.106-6.511,3.219-10.326,2.087-1.15-.117-1.4-1.42-2.373-1.776a4,4,0,0,0-2.382.259,52.831,52.831,0,0,1-8.408,1.9c-.717.1-1.475.393-2.188-.071-1.447-.7-1.025-1.774-.582-2.86.942-2.308,1.887-4.615,2.808-6.932.22-.552.655-1.128.076-1.729-1.342-.784-2.4-.132-3.359.724a18.471,18.471,0,0,0-4.663,6.942c-2.018,4.9-1,4.314-6.612,4.35a3.055,3.055,0,0,1-2.161-.433c-1.339.133-.912-.871-1-1.542-.465-.961-1.17-.437-1.757-.231a28.918,28.918,0,0,1-7.42,1.79,4.779,4.779,0,0,1-2.038-.071c-1.015-.3-.936-1.126-.923-1.918-.132-.3-.007-.613-.061-1.133-2.845,2.113-5.831,3.645-9.441,3.262a13.782,13.782,0,0,1-2.642-.911c-.935-.186-1.151-1.256-1.97-1.585a3.327,3.327,0,0,0-2.672.506,22.08,22.08,0,0,1-6.8,2.014A5.642,5.642,0,0,1,140.194,42l-1.4-1.21c-.789-.818-1.5-.118-2.19.155-3.078,1.221-6.189,2.181-9.567,1.613a1.286,1.286,0,0,1-.35-.118,6.718,6.718,0,0,1-1.677-1.846c-.72-.649-1.414-.19-2.061.1a29.017,29.017,0,0,1-6.754,2,6.992,6.992,0,0,1-4.014-.3,4.3,4.3,0,0,1-1.807-2.542,2.141,2.141,0,0,1-.489-1.326,29.92,29.92,0,0,1,1.221-5.7c.254-1.119-.681-.753-1.184-.927a1.4,1.4,0,0,1-.731-.378c-.353-.7-.844-1.391-.14-2.157.807-1.4,1.833-2.247,3.612-1.7.614.189.842-.4.876-.936.256-4,2.659-5.312,6.353-5.1a20.746,20.746,0,0,0,2.6-.178c.7-.049,1.272.06,1.19.966a6.577,6.577,0,0,1-.7,3.008c-.217.633-.329,1.175.292,1.625" transform="translate(-40.23 -6.741)" fill="#ec1c24"/>
      <path id="Tracé_379" data-name="Tracé 379" d="M45.13,38.114C40.46,44.5,34.455,48.19,26.826,48.7c-13.492.9-24.06-7.464-26.48-20.634C-1.926,15.7,7.289,2.608,19.81.416,32.472-1.8,44.2,4.985,48.128,16.737c.455,1.363.585,2.324-1.065,2.88-1.161.389-2.1,1.934-3.137,1.643-.619-.173-.723-2.071-1.11-3.177C39.973,9.969,31.372,4.4,23.158,5.35c-9.4,1.084-16.329,7.683-17.47,16.642C4.581,30.685,8.8,38.33,16.641,41.826a19.509,19.509,0,0,0,22.615-5.06c.685-.793,1.1-1.122,2.023-.263a8.187,8.187,0,0,0,3.851,1.611" transform="translate(0 0)" fill="#fcb734"/>
      <path id="Tracé_380" data-name="Tracé 380" d="M41.915,30.46a7.851,7.851,0,0,1,3.469,2.678c1.131,2.115,1.008,3.422-.652,5.253-1.873,2.066-4.393,3.049-6.983,3.834C32.565,43.8,27.216,43.4,21.907,43.415c-1.488,0-3.013.193-4.413-.549-1.3-.688-1.412-1.772-1.032-3.033,1.817-6.016,3.647-12.028,5.425-18.055a2.748,2.748,0,0,1,2.87-2.189c4.575-.016,9.157-.116,13.724.079,2.794.119,5.432.966,6.933,3.7.888,2.824-.186,4.869-3.539,6.122-1.607.6.309.657.039.974" transform="translate(-6.022 -7.235)" fill="#ec1c24"/>
      <path id="Tracé_381" data-name="Tracé 381" d="M64.809,39.7c1.341-2.954,3.823-4.7,6.636-6.012,5.525-2.583,11.395-2.5,17.286-1.977a3.27,3.27,0,0,1,2.96,1.665c.823,1.749.2,3.382-.408,5.015-.388,1.048-.953,2.015-1.424,3.025-.238.511-.4,1,.5.876,1.211-.12,2.743-.966,2.9,1.269A3.214,3.214,0,0,1,91.062,45.4a56.144,56.144,0,0,1-9.406,2.216,1.708,1.708,0,0,1-1.247-.252c-1.118-.256-.876-1.136-.881-1.9-.181-.293-.062-.6-.045-1.124-3.632,2.788-7.532,4.13-12.013,2.887-1.354-1.1-2.711-2.191-3-4.064a8.951,8.951,0,0,0-.517-1.426,1.679,1.679,0,0,1-.018-.515,2.762,2.762,0,0,1,.879-1.526" transform="translate(-23.657 -11.628)" fill="#ec1c24"/>
      <path id="Tracé_382" data-name="Tracé 382" d="M79.981,24.945,78.3,24.486c3.878-2.045,6.861-4.914,11.141-5.554,2.935-.439,4.718.959,6.337,2.981.666.831,1.322,1.672,1.981,2.508-1.658,1.405-3.511.666-5.314.474-1.19-.406-1.275-1.777-2.159-2.45-1.658-.5-2.687.7-3.839,1.467a6.694,6.694,0,0,1-6.466,1.034" transform="translate(-28.98 -6.977)" fill="#ec1d24"/>
      <path id="Tracé_383" data-name="Tracé 383" d="M47.335,44.816a.76.76,0,0,0-.071.363c.169.365-.026.549-.34.674-1.863,3.027-4.995,4.07-8.136,4.934-6.144,1.689-12.464,1.064-18.725,1.107a1.891,1.891,0,0,1-1.851-1.043c6.67-.094,13.389.7,19.965-1.11a18.372,18.372,0,0,0,5.458-2.409c2.506-1.692,3.126-3.336,2.467-6.209a3.08,3.08,0,0,1,1.258,2.324,3.711,3.711,0,0,1-.026,1.37" transform="translate(-6.741 -15.22)" fill="#2a2324"/>
      <path id="Tracé_384" data-name="Tracé 384" d="M143.9,24.935c-1.812-1.539-1.59-2.738.653-3.537,3.219-1.147,6.7-.6,8.31,1.315.454,1.584-.773,2.083-1.81,2.489a8.314,8.314,0,0,1-7.152-.266" transform="translate(-52.812 -7.699)" fill="#ec1d25"/>
      <path id="Tracé_385" data-name="Tracé 385" d="M289.992,42.728c.814-.019,1.631,0,2.443-.062,3.346-.236,5-1.549,5.986-4.65,1.807-5.7,3.637-11.386,5.443-17.084.116-.367.184-.724.58-.891,1,.223.633.949.468,1.477-1.977,6.337-3.907,12.69-6.028,18.979-.712,2.111-2.762,2.8-4.826,2.967-1.376.11-2.977.917-4.067-.736" transform="translate(-107.33 -7.417)" fill="#262021"/>
      <path id="Tracé_386" data-name="Tracé 386" d="M222.7,49.334c1.747-.038,3.5-.168,5.238-.083,1.24.06,1.713-.452,2.1-1.543a25.4,25.4,0,0,1,4.8-8.771,6.329,6.329,0,0,1,2.326-1.835c.9-.347,1.841-.581,2.331.648a4.821,4.821,0,0,0-3.5,1.938,25,25,0,0,0-5.02,9.114,1.765,1.765,0,0,1-2.007,1.444c-1.691-.084-3.39-.016-5.086-.025-.6,0-1.37.172-1.18-.889" transform="translate(-82.413 -13.629)" fill="#2a2526"/>
      <path id="Tracé_387" data-name="Tracé 387" d="M232.058,68.469c-.954-.011-1.2.577-1.346,1.293s-.377,1.443-.524,2.174-.673.634-1.156.542c-.656-.125-.231-.579-.183-.867.163-.976.377-1.943.6-3.043a1.142,1.142,0,0,0-1.439,1.03c-.162.664-.367,1.321-.473,1.995-.1.642-.307,1.048-1.059.929-1.07-.168-.386-.818-.343-1.261.047-.493.212-.973.282-1.464.21-1.476.283-2.814,2.547-2.558,1.172.133,2.5.648,3.738-.016.119-.064.382.036.524.135a1.244,1.244,0,0,1,.36,1.667c-.5,1.134.107,2.739-1.265,3.449-.677.35-.936-.2-.777-.924a10.193,10.193,0,0,0,.517-3.08" transform="translate(-83.601 -24.872)" fill="#272324"/>
      <path id="Tracé_388" data-name="Tracé 388" d="M171.47,38.749c-1.442-.438-.84-1.429-.562-2.251,1.835-5.4,3.7-10.791,5.557-16.185,1.114.125,1.03.734.74,1.576-1.716,4.969-3.391,9.951-5.08,14.928l-.656,1.931" transform="translate(-63.121 -7.518)" fill="#282223"/>
      <path id="Tracé_389" data-name="Tracé 389" d="M199.357,71.152c-1.351.312-2.423.279-2.7-1.266-.288-1.621.952-3.689,2.511-3.858,1.039-.113,1.628-.309,1.63-1.45a.727.727,0,0,1,.983-.785c.785.159.542.729.454,1.176-.372,1.89-.777,3.773-1.177,5.658-.273,1.287-1.276.188-1.7.526" transform="translate(-72.771 -23.599)" fill="#282425"/>
      <path id="Tracé_390" data-name="Tracé 390" d="M275.829,67.2c.455.26,1.551-.426,1.5.923-.13,3.223-1.1,4.463-3.443,4.47-1.294,0-1.585-.758-1.585-1.805a3.322,3.322,0,0,1,3.531-3.588" transform="translate(-100.782 -24.872)" fill="#272324"/>
      <path id="Tracé_391" data-name="Tracé 391" d="M240.6,72.527a1.309,1.309,0,0,1-1.493-1.015,3.81,3.81,0,0,1,2.2-4.24,2.969,2.969,0,0,1,2.526.123c.675.511-.01,1.342-.1,2.032-.032.244-.105.482-.147.726-.4,2.38-.4,2.38-2.984,2.374" transform="translate(-88.458 -24.817)" fill="#272324"/>
      <path id="Tracé_392" data-name="Tracé 392" d="M125.837,43.7c-.906.268-.881-.5-.956-.963a3.662,3.662,0,0,1,.215-1.261c.966-4.393.966-4.474,5.382-4.492,2.443-.01,1.606-2.041,2.254-3.156.659-.016,1.093.161.818.945.365,1.065-.634,1.881-.535,2.9-.552,1.063-1.579.858-2.49.884-2.963.086-2.95.076-3.73,2.976-.2.764-.218,1.631-.958,2.17" transform="translate(-46.216 -12.519)" fill="#2d2425"/>
      <path id="Tracé_393" data-name="Tracé 393" d="M285.594,72.145c-1.107.746-2.364.181-3.536.39a.708.708,0,0,1-.773-.68,10.584,10.584,0,0,1,.871-4.33c.122-.331.675-.343,1.032-.235.571.173.208.631.166.937-.1.74-.291,1.467-.428,2.2-.062.338-.287.778.245.92a.76.76,0,0,0,.89-.538,18.157,18.157,0,0,0,.646-2.536c.135-.76.549-1.187,1.267-.988.762.211.2.8.147,1.209a17.387,17.387,0,0,0-.562,3.689Z" transform="translate(-104.103 -24.882)" fill="#292526"/>
      <path id="Tracé_394" data-name="Tracé 394" d="M152.557,68.359c-1.654.37-1.308,1.832-1.678,2.85-.224.618-.12,1.5-1.166,1.242-1.029-.253-.316-.972-.288-1.483a8.087,8.087,0,0,1,.246-1.28c.557-2.508,1-2.794,3.6-2.542a1,1,0,0,1,1.03,1.242c-.161,1.167-.451,2.317-.687,3.473-.139.681-.65.664-1.163.588-.832-.123-.253-.653-.244-.985.027-1.02.711-1.977.353-3.106" transform="translate(-55.206 -24.824)" fill="#272324"/>
      <path id="Tracé_395" data-name="Tracé 395" d="M208.288,72.538c-1.172.038-2.07-.076-2.334-1.142a3.515,3.515,0,0,1,1.219-3.7,2.684,2.684,0,0,1,3-.275,1.156,1.156,0,0,1,.615,1.426c-.323,1.049-1.167,1.347-2.16,1.507-.392.063-1.194-.279-1.108.565.073.713.726.5,1.2.465s1.17-.739,1.287.251c.079.674-.721.693-1.224.846a1.7,1.7,0,0,1-.5.057" transform="translate(-76.181 -24.831)" fill="#292627"/>
      <path id="Tracé_396" data-name="Tracé 396" d="M255.966,72.532c-1.619.074-2.382-.379-2.523-1.624-.175-1.539.939-3.44,2.314-3.659,1-.159,2.3-.448,2.591,1.044.263,1.373-.742,1.769-1.895,2.043-.451.108-1.384-.311-1.33.506.059.9.9.591,1.5.486.361-.064.819-.588.984.217.13.638-.436.7-.792.842a2.555,2.555,0,0,1-.85.146" transform="translate(-93.796 -24.84)" fill="#292526"/>
      <path id="Tracé_397" data-name="Tracé 397" d="M143.225,72.368c-3.011-.126-3.01-.125-2.263-3.35.084-.365.149-.734.233-1.1.149-.654.692-.707,1.185-.637.785.111.277.691.245,1.024-.065.679-.287,1.341-.388,2.019-.054.367-.476.925.246,1.054.483.086.8-.311.931-.756a23.187,23.187,0,0,0,.579-2.36c.134-.77.584-1.178,1.286-.958.738.232.167.812.1,1.228a24.374,24.374,0,0,0-.486,2.761c-.045,1.124-.482,1.447-1.67,1.077" transform="translate(-52.019 -24.887)" fill="#2a2627"/>
      <path id="Tracé_398" data-name="Tracé 398" d="M172.7,72.569c-1.151.063-1.967-.317-2.162-1.561-.24-1.537.789-3.435,2.174-3.728,1.086-.23,2.491-.472,2.742,1.065.23,1.417-.953,1.822-2.171,2.011-.392.061-1.2-.248-1.061.609.111.71.757.416,1.227.426.41.008.949-.746,1.214.111.277.9-.657.687-1.046.947-.228.153-.607.086-.917.118" transform="translate(-63.107 -24.838)" fill="#282425"/>
      <path id="Tracé_399" data-name="Tracé 399" d="M90.1,54.355a81.181,81.181,0,0,0,9.244-2.021,5.5,5.5,0,0,0,3.442-2.012.506.506,0,0,1,.51.11,1.773,1.773,0,0,1,.2,1.29c-1.382,1.294-3.2,1.594-4.924,2.033-2.222.566-4.489.95-6.734,1.424-.8.169-1.5.176-1.736-.823" transform="translate(-33.347 -18.615)" fill="#2a2224"/>
      <path id="Tracé_400" data-name="Tracé 400" d="M288.076,72.19c1.007-.426,1.527-1.387,2.293-2.078.683-.616-.008-1.117-.186-1.652-.115-.346-.382-.721.031-.988.239-.155.814-.261.859-.181.721,1.3,1.375.375,2.109.031.34-.159.818-.027,1.672-.027-1.942,1.58-2.958,3.1-.988,5.025-1.417.509-2.2.159-2.394-1.361-1,1.216-1.851,2.3-3.359,1.19l-.038.041" transform="translate(-106.621 -24.888)" fill="#272324"/>
      <path id="Tracé_401" data-name="Tracé 401" d="M128.289,71.434c.486-2.149.968-4.139,1.372-6.145.147-.732.4-1.129,1.211-.979,1.022.19.4.886.356,1.313a18.411,18.411,0,0,1-.494,2.183c-.272,1.2-1.024,2.689,1.39,2.317.3-.047.668.042.5.506-.145.4-.249.831-.853.814-1.121-.031-2.242-.009-3.478-.009" transform="translate(-47.482 -23.79)" fill="#2a2627"/>
      <path id="Tracé_402" data-name="Tracé 402" d="M186.878,68.479c.05.6.408.605.673.739.7.351,1.654.547,1.436,1.645a2.076,2.076,0,0,1-2.136,1.731,6.633,6.633,0,0,1-1.482-.081c-.447-.076-1.069-.11-.944-.8S185,71.1,185.56,71.3c.5.176,1.282.473,1.52-.118.317-.787-.605-.723-1.055-.923a1.32,1.32,0,0,1-.916-1.27,1.676,1.676,0,0,1,1.083-1.6,2.453,2.453,0,0,1,1.094-.183c.7.047,1.91-.288,1.926.57.021,1.119-1.149.387-1.786.527-.178.039-.348.111-.547.176" transform="translate(-68.252 -24.864)" fill="#292526"/>
      <path id="Tracé_403" data-name="Tracé 403" d="M216.125,68.629a3.548,3.548,0,0,0,.511.442c.732.382,1.8.4,1.749,1.614a1.8,1.8,0,0,1-1.282,1.678,3.857,3.857,0,0,1-3.092-.147.391.391,0,0,1-.205-.6c.139-.285.267-.595.66-.52.425.081.836.227,1.26.312a.637.637,0,0,0,.787-.317c.161-.4-.187-.56-.474-.646-1.177-.349-1.954-.939-1.355-2.285.412-.927,2.479-1.427,3.546-.886.189.1.464.428.428.49-.147.245-.384.576-.619.6-.579.064-1.2-.362-1.915.26" transform="translate(-79.108 -24.818)" fill="#292526"/>
      <path id="Tracé_404" data-name="Tracé 404" d="M69.556,54.1c1.645-.276,3.287.222,4.953-.079a16.074,16.074,0,0,0,7.741-4.039c.4,1.082-.3,1.664-.635,2.356a14.663,14.663,0,0,1-7.6,2.774A7.377,7.377,0,0,1,69.556,54.1" transform="translate(-25.744 -18.499)" fill="#2a2324"/>
      <path id="Tracé_405" data-name="Tracé 405" d="M114.233,54.9a24.145,24.145,0,0,0,11.5-2.54c.762-.346,1.633-.821,1.325.744a23.341,23.341,0,0,1-9.948,2.729c-1.045.015-2.137.038-2.88-.932" transform="translate(-42.279 -19.249)" fill="#292123"/>
      <path id="Tracé_406" data-name="Tracé 406" d="M245.726,54.882c3.884-.768,7.859-1.178,11.535-2.774.858-.372,1.1.171,1.441.684-3.628,1.783-7.58,2.3-11.513,2.879-.661.1-1.255-.014-1.463-.789" transform="translate(-90.947 -19.24)" fill="#2b2324"/>
      <path id="Tracé_407" data-name="Tracé 407" d="M158.7,54.407c4.039.826,7.629-.573,11.153-2.251.768-.366,1.479-.862,1.909.359A18.9,18.9,0,0,1,161.688,55.6a3.123,3.123,0,0,1-2.984-1.19" transform="translate(-58.739 -19.149)" fill="#2c2223"/>
      <path id="Tracé_408" data-name="Tracé 408" d="M165.07,69.944c1.224-.835.928-3.251,3.292-2.521-.913,1.524-1.811,3.006-2.688,4.5a1.112,1.112,0,0,1-1.228.612c-.632-.091-.522-.6-.591-1-.177-1.041-.328-2.086-.521-3.123-.093-.5-.309-.993.465-1.136.731-.134,1.027.2,1.073.885.037.557.121,1.11.2,1.781" transform="translate(-60.416 -24.89)" fill="#2c292a"/>
      <path id="Tracé_409" data-name="Tracé 409" d="M270.1,53.835c6.764-.293,6.871-.326,12.2-3.823l-.819,2.261c-1.891.959-3.708,2.1-5.852,2.45-1.936.313-3.854.425-5.533-.888" transform="translate(-99.967 -18.51)" fill="#2c2223"/>
      <path id="Tracé_410" data-name="Tracé 410" d="M186.377,54.041a14.426,14.426,0,0,0,5.411-1.182,18.562,18.562,0,0,0,4.451-3.044c.531,1.118-.251,1.668-.545,2.355-2.2,1.25-4.358,2.619-7.016,2.7a6.966,6.966,0,0,1-3.461-.484c.169-.833.716-.421,1.159-.348" transform="translate(-68.552 -18.437)" fill="#2a2223"/>
      <path id="Tracé_411" data-name="Tracé 411" d="M203.316,54.976a55.757,55.757,0,0,0,10.678-2.605c1.606-.588.515.654.537,1.117a36.47,36.47,0,0,1-9.2,2.211c-.743.057-1.682.433-2.02-.723" transform="translate(-75.25 -19.326)" fill="#2a2223"/>
      <path id="Tracé_412" data-name="Tracé 412" d="M149.768,43.876c-1.32-.542-1.05-1.512-.665-2.5q1.57-4.011,3.158-8.015c1.128.137,1.058.749.714,1.589-.9,2.185-1.739,4.392-2.593,6.593a5.715,5.715,0,0,0-.614,2.329" transform="translate(-55.068 -12.349)" fill="#2c2324"/>
      <path id="Tracé_413" data-name="Tracé 413" d="M137.264,55.041a23.563,23.563,0,0,0,10.944-2.565c1.182-.644,1,.329,1.163.915a20.606,20.606,0,0,1-9.524,2.412,3.4,3.4,0,0,1-2.582-.762" transform="translate(-50.803 -19.344)" fill="#292224"/>
      <path id="Tracé_414" data-name="Tracé 414" d="M249.3,71.8c-.513-.014-1-.065-1.238-.629-.265-.626.727-5.433,1.241-5.821.236-.178.576-.419.845-.194.542.453.426,1.441,1.308,1.647-.142.462-.748.562-.885.8-.568,1-1.832,2.085-.183,3.23a.417.417,0,0,1,.118.635c-.3.389-.779.3-1.206.33" transform="translate(-91.795 -24.08)" fill="#2a2627"/>
      <path id="Tracé_415" data-name="Tracé 415" d="M80.824,26.578c3.212.475,5.784-.913,8.212-2.762.739-.563,1.544-.993,2.092.261a16.577,16.577,0,0,0-2.8,1.8c-2.118,2.038-4.679,1.569-7.193,1.495-.713-.021-.659-.351-.312-.791" transform="translate(-29.823 -8.61)" fill="#292122"/>
      <path id="Tracé_416" data-name="Tracé 416" d="M104.768,43.914c-.4.134-.874.517-1.224.2-.5-.452.067-.91.261-1.31,1.273-2.629,2.777-5.184,2.478-8.277a.944.944,0,0,1,.79.868l.3,2.128a8.65,8.65,0,0,1-2.607,6.392" transform="translate(-38.249 -12.778)" fill="#2d2324"/>
      <path id="Tracé_417" data-name="Tracé 417" d="M217.935,43.412l-1.475.491c1.364-3.365,3.063-6.268,2.961-9.7,1.033.525,1.088,1.429.93,2.4a21.189,21.189,0,0,1-2.416,6.807" transform="translate(-80.115 -12.658)" fill="#2c2425"/>
      <path id="Tracé_418" data-name="Tracé 418" d="M144.614,26.057a12.586,12.586,0,0,0,6.679-.028c1.111-.345,2.109-.861,2.283-2.195,1.173.688,1.151,1.566.231,2.38-1.58,1.4-7.478,2.057-9.193-.157" transform="translate(-53.524 -8.821)" fill="#2c2425"/>
      <path id="Tracé_419" data-name="Tracé 419" d="M55.7,32.7l-2.187-.528C56.562,30.8,59.9,29.861,59.2,25.6a3.323,3.323,0,0,1-.207,5.11A21.449,21.449,0,0,1,55.7,32.7" transform="translate(-19.806 -9.477)" fill="#2c2223"/>
      <path id="Tracé_420" data-name="Tracé 420" d="M260.766,43.64c-1.094.518-1.529.426-1.042-.93.935-2.6,2.2-5.157,1.577-8.068,1.619,1.127,1.325,2.742.964,4.262-.381,1.606-.989,3.159-1.5,4.735" transform="translate(-96.054 -12.822)" fill="#2f2526"/>
      <path id="Tracé_421" data-name="Tracé 421" d="M265.9,67.3c.016.167.072.36.032.382A5.229,5.229,0,0,0,263.417,72c-.1.783-.733.538-1.167.5-.6-.054-.335-.521-.275-.844.214-1.15.5-2.291.643-3.45.078-.641.573-1.085.91-.893.844.482,1.607-.363,2.373-.006" transform="translate(-96.921 -24.876)" fill="#292627"/>
      <path id="Tracé_422" data-name="Tracé 422" d="M181.559,67.434a2.341,2.341,0,0,1,.526-.177c.336-.068.8-.224.9.248.05.227-.214.739-.394.768-1.79.293-1.629,1.815-1.93,3-.176.7-.2,1.447-1.195,1.223-1.054-.239-.332-1.008-.292-1.481.073-.856.478-1.687.523-2.541.06-1.131.545-1.371,1.859-1.042" transform="translate(-66.213 -24.863)" fill="#2b2728"/>
      <path id="Tracé_423" data-name="Tracé 423" d="M270.211,68.191c-.274,1.184-.62,2.384-.811,3.608-.13.838-.646.816-1.206.721-.725-.123-.357-.67-.287-1.028.227-1.158.5-2.306.765-3.456.16-.7.672-.857,1.286-.745.635.116.241.551.252.9" transform="translate(-99.099 -24.893)" fill="#2c2829"/>
      <path id="Tracé_424" data-name="Tracé 424" d="M160.652,68.247c-.256,1.1-.6,2.3-.8,3.529-.131.814-.616.838-1.2.747-.75-.118-.363-.659-.294-1.013.227-1.159.505-2.309.766-3.462.157-.694.653-.86,1.276-.768.668.1.264.538.248.966" transform="translate(-58.552 -24.893)" fill="#2b2728"/>
      <path id="Tracé_425" data-name="Tracé 425" d="M100.755,28.167c1.738-.534,3.588.183,5.315-.474.348.259.768.535.625,1.02-.135.459-.63.29-.969.3-1.185.028-2.372.008-3.558.014-.653,0-1.281-.02-1.413-.858" transform="translate(-37.291 -10.249)" fill="#3c2123"/>
      <path id="Tracé_426" data-name="Tracé 426" d="M131.083,29.509c-.741.13-1.752.609-1.076-.93.535-1.218.994-2.467,1.487-3.7.9-.033,1.025.443.776,1.168q-.593,1.732-1.187,3.464" transform="translate(-48.035 -9.207)" fill="#2d2425"/>
      <path id="Tracé_427" data-name="Tracé 427" d="M257.5,65.531c-.565.031-.828-.373-.762-.549.362-.974,1.4-1.122,2.195-1.508.336-.162.676.42.6.711-.286,1.093-1.555.743-2.032,1.346" transform="translate(-95.02 -23.482)" fill="#4c4949"/>
      <path id="Tracé_428" data-name="Tracé 428" d="M138.717,66.408c.65-.728-1.5-1.967.356-2.4.355-.083.844.011.944.42.254,1.04-.5,1.528-1.3,1.979" transform="translate(-51.187 -23.68)" fill="#383435"/>
      <path id="Tracé_429" data-name="Tracé 429" d="M271.6,64.649c-.073.545-.382.954-.951.9a.891.891,0,0,1-.89-.992.865.865,0,0,1,.87-.814c.6-.025.9.321.971.911" transform="translate(-99.838 -23.59)" fill="#393536"/>
      <path id="Tracé_430" data-name="Tracé 430" d="M162.046,64.629c-.084.564-.386.979-.952.908a.912.912,0,0,1-.884-1,.872.872,0,0,1,.881-.794c.605-.031.888.329.954.883" transform="translate(-59.294 -23.592)" fill="#363233"/>
      <path id="Tracé_431" data-name="Tracé 431" d="M240.592,34.4a2.261,2.261,0,0,1-1.614,1c.273-.8.517-1.512.76-2.226.915-.026.906.585.854,1.225" transform="translate(-88.449 -12.278)" fill="#332022"/>
      <path id="Tracé_432" data-name="Tracé 432" d="M185.4,56.14c-.395.087-.858-.048-1.159.348a2.753,2.753,0,0,1-1.668-1l2.827.653" transform="translate(-67.572 -20.536)" fill="#4c3132"/>
      <path id="Tracé_433" data-name="Tracé 433" d="M63.794,48.237l.34-.674a1.751,1.751,0,0,1,.285,1.578l-.625-.9" transform="translate(-23.611 -17.604)" fill="#d16166"/>
      <path id="Tracé_434" data-name="Tracé 434" d="M64.447,46.09q.012-.687.025-1.372c.178-.05.356-.1.533-.154l-.558,1.526" transform="translate(-23.853 -16.494)" fill="#d16166"/>
      <path id="Tracé_435" data-name="Tracé 435" d="M201.692,37.929a18.312,18.312,0,0,1-5.832,6.609,4.969,4.969,0,0,1-4.353,1.11,2.184,2.184,0,0,1-.03-2.472,11.935,11.935,0,0,1,9.039-5.68,1.181,1.181,0,0,1,1.175.432" transform="translate(-70.732 -13.872)" fill="#fdfdfd"/>
      <path id="Tracé_436" data-name="Tracé 436" d="M287.689,37.742c-.562,3.165-5.069,7.51-8.145,7.85a1.753,1.753,0,0,1-1.728-.42c-.472-1.262.359-2.151.959-3.057,1.921-2.905,6.156-4.951,8.914-4.373" transform="translate(-102.772 -13.933)" fill="#fdfdfd"/>
      <path id="Tracé_437" data-name="Tracé 437" d="M126.406,45.956a5.311,5.311,0,0,1,.078-.549c.4-1.614.385-3.548,1.322-4.75.986-1.266,3-.14,4.543-.423.416-.076.824-.2,1.235-.308-.17.659-.321,1.323-.513,1.977a5.932,5.932,0,0,1-6,4.567c-.4.01-.541-.215-.66-.513" transform="translate(-46.785 -14.777)" fill="#fefdfd"/>
      <path id="Tracé_438" data-name="Tracé 438" d="M201.313,37.574a12.078,12.078,0,0,0-9.05,4.28,4.086,4.086,0,0,0-1.134,3.44,1.982,1.982,0,0,1-.818-2.716c1.352-3.462,6.687-6.248,10.635-6.048.881.044.953.449.367,1.044" transform="translate(-70.354 -13.516)" fill="#292122"/>
      <path id="Tracé_439" data-name="Tracé 439" d="M105.6,45.674a48.982,48.982,0,0,0,2.607-6.392l.886.144c.4.395,1,.522,1.34,1q-.7,2.965-1.4,5.93l-.509-.109c-.63-1.927-1.966-.287-2.92-.573" transform="translate(-39.086 -14.539)" fill="#fcfafa"/>
      <path id="Tracé_440" data-name="Tracé 440" d="M287.36,37.252c-4.664.672-8.258,2.749-9.873,7.43-1.085-.79-.687-1.765-.278-2.681,1.327-2.976,6.242-5.873,9.543-5.673.632.038,1.452-.066.608.923" transform="translate(-102.443 -13.442)" fill="#292223"/>
      <path id="Tracé_441" data-name="Tracé 441" d="M112.48,40.392c-.652-.062-1.487.118-1.34-1,.627.094,2.124-.963,1.34,1" transform="translate(-41.128 -14.505)" fill="#45393a"/>
      <path id="Tracé_442" data-name="Tracé 442" d="M42.1,41.628c1.1,1.8.826,2.988-1.032,3.867a13.085,13.085,0,0,1-6.9.959c-.635-1.992.4-3.645,1.318-5.184.844-1.419,2.489-.656,3.8-.75.92.414,2.036.34,2.816,1.109" transform="translate(-12.572 -14.952)" fill="#fdfcfc"/>
      <path id="Tracé_443" data-name="Tracé 443" d="M45.029,26.306c1.286,1.459.579,2.552-.756,3.353a8.651,8.651,0,0,1-5.246,1.109,4.892,4.892,0,0,1,1.441-4.883c1.369-1.116,3.08-.287,4.562.422" transform="translate(-14.397 -9.378)" fill="#fdfcfc"/>
      <path id="Tracé_444" data-name="Tracé 444" d="M38.866,40.674c-3.621.055-3.626.054-4.68,3.447-.217.7-.382,1.411-.571,2.117-.931.185-1.329-.132-1.026-1.09.47-1.483.978-2.956,1.4-4.452.164-.578.447-.864,1.03-.857,1.683.021,3.393-.223,5.01.477-.163.852-.725.409-1.167.357" transform="translate(-12.025 -14.736)" fill="#282122"/>
      <path id="Tracé_445" data-name="Tracé 445" d="M44.428,26.062c-5.641-.941-4.279-.925-6,4.461-.914.391-1.367.2-1.051-.863.39-1.313.835-2.611,1.212-3.928a1.307,1.307,0,0,1,1.357-1.054c1.624.016,3.28-.005,4.484,1.383" transform="translate(-13.796 -9.134)" fill="#292223"/>
      <path id="Tracé_446" data-name="Tracé 446" d="M42.613,40.969c.38-.148.868.054,1.167-.357a2.1,2.1,0,0,1,1.516,1.1l-2.683-.739" transform="translate(-15.772 -15.031)" fill="#593638"/>
      <path id="Tracé_447" data-name="Tracé 447" d="M88.575,38.165a17.473,17.473,0,0,1-6.655,7.152,4.043,4.043,0,0,1-3.568.575,2.865,2.865,0,0,1,.587-3.427,11.748,11.748,0,0,1,8.983-4.575.764.764,0,0,1,.654.275" transform="translate(-28.869 -14.023)" fill="#fdfdfd"/>
      <path id="Tracé_448" data-name="Tracé 448" d="M88.176,37.749a12.838,12.838,0,0,0-8.007,3.236c-1.34,1.173-2.447,2.521-2.217,4.49-1.21-.72-1.214-1.733-.729-2.885,1.346-3.194,7.152-6.339,10.589-5.755.726.123.893.353.363.913" transform="translate(-28.47 -13.607)" fill="#2a2223"/>
      <path id="Tracé_449" data-name="Tracé 449" d="M199.811,72.131c-.624-.137-.586-.617-.511-1.022.155-.831.207-1.83,1.344-1.926.559-.047.4.51.34.838-.145.834-.166,1.755-1.173,2.109" transform="translate(-73.749 -25.605)" fill="#f8f8f8"/>
      <path id="Tracé_450" data-name="Tracé 450" d="M276.075,69.032c.659.094.449.523.366.846-.219.848-.057,2.015-1.265,2.179-.55.075-.445-.594-.386-1.017.122-.88.351-1.689,1.285-2.008" transform="translate(-101.686 -25.55)" fill="#f0f0f0"/>
      <path id="Tracé_451" data-name="Tracé 451" d="M243.441,68.851A8.4,8.4,0,0,1,243.2,70c-.275.7-.045,1.672-1.032,1.991-.34.11-.64-.037-.65-.413a2.753,2.753,0,0,1,.969-2.45,3.618,3.618,0,0,1,.952-.28" transform="translate(-89.39 -25.483)" fill="#eee"/>
      <path id="Tracé_452" data-name="Tracé 452" d="M210.409,69.2c-.043.611-.443.686-.786.8-.428.148-.6-.119-.544-.465a.758.758,0,0,1,.823-.608c.235,0,.494.067.507.268" transform="translate(-77.38 -25.514)" fill="#d9d9d9"/>
      <path id="Tracé_453" data-name="Tracé 453" d="M257.584,68.971c.2.047.475.077.436.414-.067.576-.574.554-.966.634-.339.068-.428-.214-.338-.455a.854.854,0,0,1,.868-.593" transform="translate(-95.002 -25.527)" fill="#fafafa"/>
      <path id="Tracé_454" data-name="Tracé 454" d="M174.15,70.068c-.338.021-.413-.215-.38-.454.069-.516.454-.671.915-.65.244.011.493.114.428.428-.105.509-.567.554-.962.677" transform="translate(-64.312 -25.524)" fill="#dcdcdc"/>
    </g>
  </g>
</svg>
