<svg xmlns="http://www.w3.org/2000/svg" xmlns:xlink="http://www.w3.org/1999/xlink" width="111.334" height="86.173" viewBox="0 0 111.334 86.173">
  <defs>
    <clipPath id="clip-path">
      <path id="path847" d="M1237.352-670.449h111.334v86.173H1237.352Z" transform="translate(-1237.352 670.449)"/>
    </clipPath>
  </defs>
  <g id="g841" transform="translate(-329.961 178.796)">
    <g id="g843" transform="translate(329.961 -178.796)">
      <g id="g845" clip-path="url(#clip-path)">
        <path id="path851" d="M1237.352-590.022h111.334v-80.427H1237.352Z" transform="translate(-1237.352 670.449)" fill="#009cac"/>
        <path id="path853" d="M1237.352-303.508h111.334v-5.746H1237.352Z" transform="translate(-1237.352 389.681)" fill="#ed1c24"/>
      </g>
    </g>
    <g id="g855" transform="translate(339.79 -127.093)">
      <path id="path857" d="M-224.531-19.662h.128l.583,7.048h-5.632a53.192,53.192,0,0,1,4.921-7.048m-20.061,0h.124l.583,7.048h-5.63a52.14,52.14,0,0,1,4.923-7.048m40.67-2.63h6.63l1.209-3h-10.468c-2.464,0-3.546.625-4.462,3.21L-216.52-6.941h-.124l-1.921-18.353h-4.047a2.233,2.233,0,0,0-1.627.5c-2.794,2.337-8.847,11.013-12.347,17.853h-.124l-1.921-18.353h-4.046a2.24,2.24,0,0,0-1.628.5c-2.8,2.337-8.842,11.013-12.346,17.853h-.126l.46-18.353h-5.006a1.771,1.771,0,0,0-1.75.748A69.967,69.967,0,0,0-270.413-12.7h-.082l.334-12.595h-3.674a3.5,3.5,0,0,0-1.749.748c-4.088,2.919-9.093,10.513-13.264,19.358h4.336c2.591-5.385,5.675-10.681,8.012-13.31h.121l-.247,10.807c-.042,2.209,1.126,2.5,1.917,2.5h4.171a97.741,97.741,0,0,1,7.509-13.059h.084l-.169,10.974a2.181,2.181,0,0,0,2.463,2.085h6.925c.875-1.589,1.751-3.256,2.671-4.842h7.379l.168,2.13c.169,1.792,1.04,2.712,3.085,2.712h6.759c.877-1.589,1.755-3.256,2.67-4.842h7.384l.164,2.13c.168,1.792,1.047,2.712,3.086,2.712h9.976l3.379-9.012h4.755a2.052,2.052,0,0,0,2.164-1.333l.543-1.418h-6.423" transform="translate(288.849 25.294)" fill="#fff"/>
    </g>
    <g id="g859" transform="translate(423.715 -150.116)">
      <path id="path861" d="M0-4.493A1.289,1.289,0,0,1,1.285-5.78,1.287,1.287,0,0,1,2.573-4.493,1.285,1.285,0,0,1,1.285-3.208,1.287,1.287,0,0,1,0-4.493" transform="translate(0 5.78)" fill="#ed1c24"/>
    </g>
    <g id="g863" transform="translate(335.943 -162.831)">
      <path id="path865" d="M-326.516-35.782c-6.208-10.91-23.349-10.246-23.524-10.238-.017,0-.469-.02-1.286-.008a68.118,68.118,0,0,0-26.043,5.155c-.011,0-.02.006-.032.01a2.528,2.528,0,0,1-1.736.193,5.1,5.1,0,0,1-.9-.442l0,0A29.81,29.81,0,0,0-394.967-45.5a31.612,31.612,0,0,0-3.731.259c-.838.2-.87.443-.019.405,1.562-.065,4.115-.023,9.726,2.061l2.465,1.127a15.273,15.273,0,0,1,2.875,2.023,2.115,2.115,0,0,1,.42.583c.059.173.194.768-.657,1.228-.02.01-.032.021-.051.031a84.307,84.307,0,0,0-16.64,11.712A84.946,84.946,0,0,0-416.948-7.109c-.98,1.507-1.48,2.394-1.48,2.394s-2.334,3.918-1.4,3.671,2.642-3.116,2.642-3.116A97.864,97.864,0,0,1-394-27.289a92.263,92.263,0,0,1,21.228-10.836c13.054-4.419,22.641-4.017,22.737-4.012.164,0,14.432-.527,21.971,6.591.017.019,2.064,2.052,2.436,2.615.039.057.164.242.33.136.355-.22-1.146-2.876-1.212-2.987" transform="translate(420.048 46.032)" fill="#fff"/>
    </g>
  </g>
</svg>
