<svg xmlns="http://www.w3.org/2000/svg" width="241.079" height="349.85" viewBox="0 0 241.079 349.85">
  <path id="palm-tree" d="M49.439,111.3a1.046,1.046,0,0,0-.34-.167Zm25.543,1.563c-.013-.028-.019-.062-.03-.092l-.107.084Zm13.663.163c-.014-.033-.032-.069-.044-.1-.036.026-.075.049-.111.076C88.542,113.01,88.594,113.016,88.645,113.025ZM121.763,123.2c0,.008,0,.016,0,.024.006-.01.013-.02.019-.03l-.021.006ZM79.8,161.916c1.586-2.439,3.465-5.185,5.5-7.89A89.54,89.54,0,0,0,79.8,161.916ZM61.221,177.634a1.344,1.344,0,0,0,.262-.258c.063-.186.124-.375.189-.56-.15.273-.3.547-.451.819Zm-.33.072c-.157-.153-.131.008.033.027C60.913,177.723,60.9,177.716,60.891,177.706Zm69.85-45.056,0-.024-.035.011Zm16.283,35.694a1.733,1.733,0,0,1-.13-.144l-.056.243C146.9,168.412,146.964,168.378,147.025,168.344Zm2.786-59.406a1.484,1.484,0,0,1-.127.15c-.979.638-2.067.425-3.136.424-1.847,0-3.667-.21-5.545-.041h-.01a18.093,18.093,0,0,1,4.4.255,2.709,2.709,0,0,1,1.071.745l.216-.056a25.258,25.258,0,0,1,3.449-.138c.525-.583-.649-.795-.32-1.34Zm-2.758,15.369c.032.007.064.016.1.026-.013-.031-.022-.061-.035-.093ZM77.639,297.039l.011.023.007-.01c.005-.072.014-.143.019-.216l-.038.2ZM145.905,170.07a.536.536,0,0,0,.2-.345Zm8.788-73.384c0-.054-.005-.108-.009-.161-.047.023-.1.05-.142.067C154.593,96.624,154.638,96.659,154.693,96.687ZM154,171.143v-.022h0l-.018.016ZM163.465,98.3l-.005,0h0c-.027,0-.054,0-.082.008A.328.328,0,0,0,163.465,98.3Zm-1.818,64.386h0l.047-.035c-.017,0-.037,0-.054.005l.006.03Zm1.826-1.6,0-.011,0,0,0,.009Zm1.295,11.3.011-.011h-.016Zm33.977-78a.062.062,0,0,1,0-.009l-.01.007Zm7.742,40.772c-.007-.019-.01-.036-.017-.055l-.027.047.043.008Zm-5.778-75.5.031-.007-.03-.014Zm5.608-5.023.008-.007h-.014ZM141.7,33.186c0,.011,0,.023,0,.034.02-.006.039-.01.058-.014a.547.547,0,0,0-.056-.02ZM124.3,77.259a1.19,1.19,0,0,0,.06.137c.019-.044.035-.086.057-.132ZM77.664,42.036h0ZM43.136,108.831l1.113-.771c.021-.162.047-.323.077-.483a3.185,3.185,0,0,1,.618-.5,12.441,12.441,0,0,0,1.278-.708c3.688-2.3,6.664-5.642,10.756-7.369.207-.087.181-.529.185-.821a2.975,2.975,0,0,1,1.976-1.035,61.532,61.532,0,0,1,20.559-6.5,50.979,50.979,0,0,1,11.885-1.584h0c.368.093.774.339,1.1.258,6.407-1.608,12.8-.983,19.191.081l6.975.613a59.748,59.748,0,0,0,9.82,1.159,82.815,82.815,0,0,1-10-6.765c-2.3-1.76-5.569-.838-8.359-2.9,1.12-.074,1.691-.094,2.258-.154.516-.055,1.213.307,1.408-.56a34.82,34.82,0,0,1-5.643-4.484c-2.378-1.245-5.141-.785-7.589-1.716l-8.43-.477.02-.572,4.8.272h0c2.321-1.055,4.9.647,7.2-.672L94.25,64.717a4.388,4.388,0,0,0-2.4-.681,81.441,81.441,0,0,0-9.978,1.747c-.137.039-1.689.876-.736-.65a49.652,49.652,0,0,1,9.908-2.442.685.685,0,0,1,.158-.416L87.64,58.831a2.42,2.42,0,0,1-1.163-.275,4.962,4.962,0,0,0-.819-.492,58.014,58.014,0,0,0-12,2.038l-1.405-.08c-.034-.142-.066-.284-.1-.427l4.612-1.821c2.211-1.264,4.339-2.986,7.089-1.271l.053.017a2.226,2.226,0,0,1-.087-.322,1.387,1.387,0,0,1,.108-.233c-1.909-.087-2.488-1.676-3.286-3.019l-3.4-3.241c-1.522-.573-3.024-.071-4.546.031-3.3.223-6.38,1.884-9.771,1.5,3.612-2.269,7.726-2.861,11.821-3.522l-5.231-5.226q-.418-.129-.839-.245a2.611,2.611,0,0,1-1.584-1.418q-.2-.58-.407-1.16c1.759-1.46,3.507-.542,5.255.038a11.4,11.4,0,0,0,2.956.98c1.347.187,2.682.476,4.024.7l1.144.288,4.645.775L91.8,44.467c.912.31,1.861.449,2.788.765,4.052,1.383,8.177,2.554,12.276,3.8l11.6,4.858c.223.641.792.489,1.268.55,2.439.781,5.134,1.055,6.785,3.4.456,1.023,1.863.326,2.349,1.293a3.69,3.69,0,0,0,2.223,1.346,3.746,3.746,0,0,0,2.41,1.344,105.554,105.554,0,0,1,14.049,12.327c-.311-5.009-1.086-9.829-1.4-14.679C145.336,46.635,141.3,34.78,135.545,23.4q.1-.292.2-.583l-1.592-3.064a24.287,24.287,0,0,1-2.874-5.662l2.455,1.955c.335-.169.727-.311,1.013-.091,3.1,2.4,6.475,4.551,7.958,8.463l3.509,4.3c3.307,2.174,4.667,5.887,7,8.827a17.383,17.383,0,0,1,2.3,3.717,11.226,11.226,0,0,1,.973,3.3.956.956,0,0,0,.5.192,2.893,2.893,0,0,1,.73,1.188c.462,3.515,1.575,6.935,1.506,10.522a2.9,2.9,0,0,1-.508.952,157.037,157.037,0,0,1,.377,26.33c.52,1.434.14,2.889.1,4.334-.122,3.929-.266,7.856.623,11.731.424-2,.786-4.024,1.281-6.01a201.06,201.06,0,0,1,10.372-31.057c3.147-5.059,5.674-10.632,11.344-13.594-.006-.029-.013-.058-.018-.095A.483.483,0,0,1,183,48.6l.612-.565c.511-1.931,2.387-2.659,3.563-4a5.014,5.014,0,0,1,.622-.465,8.468,8.468,0,0,1,1.424-.544l2.5-2.229a2.662,2.662,0,0,1,1.1-1.653,95.724,95.724,0,0,1,10.411-7.938,2.574,2.574,0,0,1,2.161-.647L207.1,29.8l2.49-1.641a2.56,2.56,0,0,1,1.91-1.627l.611-.538c.976-2.141,3.04-3.15,4.745-4.528,1.184-.774,2.361-1.45,3.454.134.319,2.1-1.368,2.872-2.536,3.985,2.023.215,1.621,2.193,1.891,3.683.514.156,1.148-.688,1.488-.034.547,1.051-1.035,1.1-1.113,1.93a10.251,10.251,0,0,1,.468,4.588q.218.163.425.343-.056.8-.112,1.61l-.5,8.244-.7,3.522.236-.034-.718,1.188a1.147,1.147,0,0,1-.1.144c.1.023.195.047.3.079a1.933,1.933,0,0,1-.962,2.7l-.831,2.33c-.643,1.971-.985,4.139-3.3,5.02L210.37,65.47c-.053.642-.639.812-1.028,1.156L206.66,69.4a1.914,1.914,0,0,1-1.1,1.173l-4.529,4.58a1.888,1.888,0,0,1-1.133,1.013l-.731.713c-2.948,4.757-7.678,7.772-11.5,11.671-1.088.634-1.971,1.573-2.883,2.185a30.522,30.522,0,0,1,6.192-2.874,27.423,27.423,0,0,0,2.688-1.032c1.359-.454,2.724-.893,4.041-1.458a108.151,108.151,0,0,1,11.229-2.278c1.662.1,3.321-.573,4.986-.005a2.462,2.462,0,0,1,.238.489c.007-.008.016-.015.024-.023l.587-.167c.554-.446,1.312.153,1.854-.358,2.972.477,5.911-.337,8.874-.223l1.595.087s.007.005.01.009a.367.367,0,0,1,.32-.416l2.266.187h0l2.348-.063.639.126q.32-.09.633-.2c.824-.1,1.673.206,2.48-.155l5.129.1a5.51,5.51,0,0,1,4.061-.845c1.891.585,3.892.537,5.819.9l.683.018.035.005c-.051-.238.065-.385.354-.437l6.307.388a14.783,14.783,0,0,0,5.521.422c6.387-.713,12.626.5,18.911,1.158a.869.869,0,0,1,.859.5l-.07.974a1.192,1.192,0,0,1-.618.379,15.211,15.211,0,0,1-1.814.329l-.37-.019-.03-.005c.114,1.343-1,1.885-1.877,2.509a83.063,83.063,0,0,1-8.611,5.659c-2.044,1.109-3.736,2.89-6.227,3.11l-3.091,1.728a36.421,36.421,0,0,1-14.765,7.681l-11.446,4.789-.625,0,.061.172c-2.264,2.043-5.033,2.66-7.97,2.8l-6.54,1.779c-1.419,2.009-3.607,1-5.442,1.377l-3.182.746.014.009c-3.347.045-6.583,1.3-9.97.9-.514.647-1.322.719-2.046.961.123.067.242.135.35.205a54.62,54.62,0,0,1,12.839,11.646c.966.663,1.378,2.049,2.792,2.126,4.676,1.994,7.936,5.836,11.7,9,1.611,1.353,3.3,2.75,4.053,4.864a15.323,15.323,0,0,0,3.408,3.754l2.938,4.82c2.671,2.009,3.383,5,4.06,8.015l1.139,3.553c1.329,1.175,1.222,2.794,1.35,4.34l.468,5.228q-.1.59-.21,1.18c-.394.233-.193.953-.6,1.175.577,1.124-.211,2.359.271,3.491-.279,1.127-.5,2.275-.852,3.377-.544,1.674-1.342,1.768-2.262.23q-4.862-2.69-9.725-5.379c-1.812,1.154-.961-1.137-1.731-1.331l-8.013-4.792-2.319-1.595-.012-.015c0,.006-.006.013-.01.019-2.654.155-4.339-1.323-5.7-3.356-1.16-.672-2-1.85-3.415-2.122a4.5,4.5,0,0,1-2.973-1.13c-2.416-1.678-4.855-3.325-7.244-5.041.3.744.76,1.523-.751,1.858-2.561-.545-3.028-2.843-3.981-4.733l0-.014a7.873,7.873,0,0,0-2.026-2.881c-.064.043-.125.087-.2.13-2.119-.268-3.443-1.757-4.856-3.106-.871.591-1.432-.306-1.963-.864-1.184-1.245-2.27-2.581-3.4-3.878l-.425-.523s0,.009-.007.014c-1.749-.023-2.709-1.4-3.948-2.3a37.064,37.064,0,0,0-2.842-2.5c-1.99-1.354-3.008-3.827-5.458-4.631l0,0a12.4,12.4,0,0,1,.528,3.177.337.337,0,0,0-.077.025,4.877,4.877,0,0,0,.531.27,2.634,2.634,0,0,1,.177,1.312q-.152.676-.265,1.361a118.663,118.663,0,0,1,1.579,26.888c.041.253.075.507.119.76,0,.057,0,.114,0,.172a13.992,13.992,0,0,1,.722,3.121c.147,3.234.887,6.6-1.243,9.488-.072,1.577-1.362,2.688-1.642,4.182-.967,1.86-1.2,4.183-3.36,5.284a2.29,2.29,0,0,1-.238.011l-3.679,7.624q-.41.852-.82,1.705c-.07.176-.17.248-.291.244a4.57,4.57,0,0,1-1.806,3.588c-.581.289-.439.881-.57,1.359a.913.913,0,0,1-.743.744c.005.076.014.151.015.228-.982.58-.226,2-1.238,2.561l-.564-.18-.394-1.786a2.883,2.883,0,0,1-.216-.537c-1.554-1.06-1.461-2.657-1.392-4.246.282-1.087-.4-1.973-.62-2.954-1.106-.5-.6-1.6-.894-2.407a3.324,3.324,0,0,0-.886-2.973c-.244,1.144-1.251,1.443-1.875,2.13a1.372,1.372,0,0,1-.588-1.182,7.871,7.871,0,0,0,.525-7.415,22.9,22.9,0,0,1-1.691-6.791q-1,2.542-2,5.084c-.3.447-.175,1.252-.963,1.269-.279.006-.4-.349-.358-.663l1.841-5.752,1.261-3.39a1.069,1.069,0,0,1-.346-.173c-1.518-2.18-1.514-4.719-1.768-7.2l-.018.012-3.27,6.287-.6-.6,1.287-3.478c.338-.969,1.117-1.8.947-2.928a1.309,1.309,0,0,1,.484-.14l1.007-3.339-.117-1.579,0,0a.663.663,0,0,1-.455-.247.487.487,0,0,0-.075-.524,5.459,5.459,0,0,1-1.246-3.661A2.221,2.221,0,0,1,142.6,165.8a1.465,1.465,0,0,0-.16.553c-.408.766-.191,1.907-1.341,2.229-.7-.046-.651,1.6-1.7.745-.059-4.053,1.6-7.464,3.983-10.6a1.2,1.2,0,0,0,.13-.565c.409-.35.291-.9.492-1.322.106-.244.175-.5.261-.754q.007-1.233.014-2.465l.056-.227a2.555,2.555,0,0,1-.674-.024c-1.232-1.822-.4-3.752-.28-5.644a6.717,6.717,0,0,0,.288-.782l-.005-.007-5.333,12.1a2.475,2.475,0,0,1-.45.3c-.266.1-.413-.023-.331-.294q1.332-4.4,2.679-8.8c-.448-1.192.218-2,.959-2.789,1.444-1.49.972-3.915,2.606-5.312.183-2.483,2.048-4.432,2.2-6.922-.008-3.536,1.954-6.45,3.06-9.636-.927.589-.971,2.055-1.9,2.642a6.221,6.221,0,0,1-1.128,2.071c.011.024.024.044.034.07.3,1.949-.962,3.061-2.243,4.163.052,1.244-.925,1.941-1.517,2.843.071.85-.559,1.271-1.085,1.753l-6.857,13.224a6.592,6.592,0,0,1-1.243,2.266c-1.008,3.038-3.54,5.363-4.052,8.631a1.653,1.653,0,0,0-.149.524A2.923,2.923,0,0,1,127.6,165.5c-.577.184-.58.683-.64,1.152-.13.4-.355.667-.743.691l-.6,2.17a3.9,3.9,0,0,0-.471.092l-6.779,14.5c-.109.569.017,1.237-.664,1.565l-9.342,24.273h0l-.4.611-.007.005a1.452,1.452,0,0,1,.4.6,5.415,5.415,0,0,1-.184,2.314c-.732,3.748-2.835,7.028-3.566,10.8-1.83,9.428-5.149,18.548-5.836,28.216a6.583,6.583,0,0,1-.988,2.433c-.022.2-.042.4-.063.607-1.286,4.01-1.041,8.27-2.024,12.329.254.8.529,1.609-.159,2.35l-.094,1.245h0a4.543,4.543,0,0,1-.523,2.98v0l-.848,13.428a2.679,2.679,0,0,1,.267,2.676,3.9,3.9,0,0,1-.555.753q-.2,1.387-.352,2.778c.016,3.7-.242,7.4-.567,11.072-.237,2.676.726,5.5-.744,8.052l-.07,1.163c.709,4.248-.236,8.425-.539,12.63a.66.66,0,0,1-.341.362l-.093,2.275c.308.156.385.514.5.841l-.92,17.522-.034,1.2L91,351.568l-.022,1.774q-.241,4.677-.483,9.356c-.342.361.334,1.353-.775,1.236a7.389,7.389,0,0,1-2.821-1.527A73.818,73.818,0,0,1,73.9,350.572c-.518.214-.763.023-.658-.688l.874-15.812q-.077,0-.145-.21t.177-.395l.756-12.384.179-2.356a2.816,2.816,0,0,1,.238-2.929l-.023.058a.694.694,0,0,1,.463-.1l0-.106a27.59,27.59,0,0,1,.447-8.1l.071-1.178.664-7.055A3.3,3.3,0,0,1,77.4,296.8l.982-11.691s0,0,0,0c-.105-.459-.138-.961-.677-1.173l1.318-2.279c-.132-5.327,1.366-10.5,1.514-15.8q1.746-9.637,3.493-19.273a2.373,2.373,0,0,0,.46-.122q.1-.576.2-1.152c.04-.025.076-.041.115-.064q-.334-.26-.682-.5a35.025,35.025,0,0,1,2.421-9.795,1.955,1.955,0,0,1,.554-.533l.073-1.249c.13-.019.259-.043.389-.07q-.107-.1-.212-.2c1.316-6.5,2.215-13.12,5.623-19a33.987,33.987,0,0,1,1.924-7.375,183.531,183.531,0,0,1,9.048-21.008c1.44-2.689,1.71-6.148,4.557-8.057l.188-.56a1.148,1.148,0,0,1,.584-1.173l0-.006c.85-1.736.781-3.96,2.727-5.113a3.843,3.843,0,0,1,1.3-2.311c.522-3.125,2.877-5.177,4.5-7.655.037,0,.072,0,.107,0-.053-.8-.148-1.633,1.148-1.6l4.018-6.779a24.573,24.573,0,0,0,3.88-5.7A49.056,49.056,0,0,1,137.3,132.741a5.031,5.031,0,0,1-1.193.3c-.06,0-.12,0-.181,0-1.747,3.209-4.842,4.825-8.009,6.358a24.988,24.988,0,0,0-4.9,3.551l-6.579,4.271a4.92,4.92,0,0,1-2.574,1.736q-.989.738-1.974,1.476c-6.681,4.733-13.531,9.2-20.633,13.284a7.939,7.939,0,0,0-.461.658,16.125,16.125,0,0,1-5.393,3.964c-6.287,3.373-12.194,7.392-18.452,10.813a54.712,54.712,0,0,1-8.342,4.211,1.518,1.518,0,0,1-.791-.335c-.773-.747-.419-1.51-.165-2.372.51-1.728.86-3.5,1.277-5.259.6-1.835.587-3.765,1.394-5.631,1.832-4.233,4.012-8.275,6.116-12.364a5.119,5.119,0,0,1,.812-1.057q.376-.363.77-.708l.353-1.037,6.742-6.171c-.01-.008-.02-.013-.03-.019-.467-1.322.341-1.9,1.375-2.354l2.017-2.231a3.672,3.672,0,0,1,1.229-2.271c2.73-2.52,5.184-5.322,7.938-7.814,1.945-1.76,3.762-3.75,6.47-4.416l.654-.545c1.155-2.356,3.319-3.367,5.624-4.19a2.6,2.6,0,0,0,1.839-1.294c.432-1.095,1.508-1.461,2.371-2.055A69.647,69.647,0,0,1,116.452,115a55.256,55.256,0,0,1,6.676-2.114c-.256.047-.512.094-.768.138q-.452-.127-.915-.212c-.776.815-1.932.765-2.965,1.055-1.745.49-3.43-.59-5.148-.066l.012-.014-1.133-.157-9.492.3a2.008,2.008,0,0,1-2.136,1.109q-2.315-.141-4.61-.49c-2.252-.724-4.688-.13-6.928-.95l-1.132-.053-2.929,1.208,0,.011h0l-3.287,2.447-1.186.687a.891.891,0,0,1-.006-1.227l3.108-2.179q-.75-.21-1.5-.4c-1.88-.031-3.752-.255-5.625-.419a2.653,2.653,0,0,1-.863-.209,9.754,9.754,0,0,0-3.863,1.41l-3.043,2.394a.747.747,0,0,1-.621-.692l3.158-2.792a4.551,4.551,0,0,0-1-.494,12.749,12.749,0,0,1-6.272-.237,4.172,4.172,0,0,0-.88-.024c-1.544-.358-3.215-.046-4.673-.872a2.058,2.058,0,0,1-.115-.3.585.585,0,0,1-.494.077c0,.035-.009.068-.011.1l-.9.424c-.6-1.253-1.9-.374-2.742-.881l-4.095-.25-.628-.033-3.551-.277-1.144.639a.762.762,0,0,0-.172-.529c-.512-.895-1.514-.32-2.189-.725q.013-.3.027-.591c.344-.252.156-.9.725-.984Z" transform="translate(-42.384 -14.094)" fill="#13616F"/>
</svg>
