<svg xmlns="http://www.w3.org/2000/svg" width="167.153" height="161.784" viewBox="0 0 167.153 161.784">
  <g id="pelle" transform="translate(-1.333 -2)">
    <path id="Tracé_512" data-name="Tracé 512" d="M160.538,2.877a5.092,5.092,0,0,1,5.919,8.282l-.207.148L127.886,37.3A27.721,27.721,0,0,0,115.72,59.758l0,.492V95.515l18.589,9.04a11.88,11.88,0,0,1,5.63,15.579l-.141.3a11.88,11.88,0,0,1-6.709,6l-.354.12L18.311,163.162A13.012,13.012,0,0,1,5.342,141.375l.266-.248L63.224,88.919A27.962,27.962,0,0,1,96.2,85.553a5.092,5.092,0,0,1-5.172,8.772,17.778,17.778,0,0,0-20.655,1.865l-.312.276L12.446,148.673a2.828,2.828,0,0,0,2.582,4.841l.179-.051,114.418-36.608a1.7,1.7,0,0,0,.369-3.064l-.144-.079L108.4,103.281a5.093,5.093,0,0,1-2.859-4.326l-.006-.253V60.25A37.9,37.9,0,0,1,121.7,29.195l.47-.324Z" transform="translate(0 0)" fill="#fff"/>
    <circle id="Ellipse_294" data-name="Ellipse 294" cx="7.267" cy="7.267" r="7.267" transform="translate(128.993 18.672)" fill="#064a57"/>
  </g>
</svg>
