<svg id="Groupe_476" data-name="Groupe 476" xmlns="http://www.w3.org/2000/svg" xmlns:xlink="http://www.w3.org/1999/xlink" width="241.077" height="349.852" viewBox="0 0 241.077 349.852">
  <defs>
    <clipPath id="clip-path">
      <rect id="Rectangle_382" data-name="Rectangle 382" width="241.077" height="349.852" fill="#13616f"/>
    </clipPath>
  </defs>
  <g id="Groupe_475" data-name="Groupe 475" clip-path="url(#clip-path)">
    <path id="Tracé_512" data-name="Tracé 512" d="M234.368,97.041a1.047,1.047,0,0,0-.34.167Zm-25.746,1.722-.107-.084c-.011.031-.017.064-.03.092Zm-13.8.171c.051-.01.1-.015.155-.024-.036-.027-.075-.05-.111-.075-.012.03-.03.066-.044.1Zm-33.116,10.174-.021-.006.019.03v-.024Zm36.461,30.826c2.035,2.705,3.914,5.451,5.5,7.89a89.853,89.853,0,0,0-5.5-7.89m24.079,23.609c-.151-.272-.3-.546-.451-.819.065.185.126.374.189.56a1.282,1.282,0,0,0,.262.258Zm.33.072c-.009.009-.022.017-.033.026C222.707,163.622,222.733,163.461,222.576,163.615Zm-69.815-45.069-.035-.011v.024Zm-16.319,35.707.187.1-.056-.244c-.041.05-.084.1-.13.145Zm-2.783-59.408c.329.546-.845.757-.32,1.341a24.991,24.991,0,0,1,3.449.138l.216.056a2.709,2.709,0,0,1,1.071-.746,18.073,18.073,0,0,1,4.4-.254h-.01c-1.878-.17-3.7.041-5.545.041-1.069,0-2.157.213-3.136-.425a1.4,1.4,0,0,1-.127-.15Zm2.691,15.3c-.013.032-.022.062-.035.094.036-.011.068-.019.1-.027Zm69.479,172.8-.038-.2c.005.073.014.144.019.216l.007.01.011-.023ZM137.362,155.633a.538.538,0,0,0,.2.346ZM128.774,82.6a1.476,1.476,0,0,0,.151-.1c-.042-.017-.1-.044-.142-.066,0,.053-.009.106-.009.16Zm.711,74.451-.018-.017v.022Zm-9.4-72.83a.289.289,0,0,0-.082-.008H120a.321.321,0,0,0,.087.008m1.732,64.378.006-.03a.2.2,0,0,0-.054,0l.047.035Zm-1.827-1.6v0Zm-1.29,11.291h-.016l.011.011ZM84.732,80.292l-.01-.007v.009Zm-7.751,40.774.043-.007L77,121.011c-.007.02-.01.037-.017.055Zm5.776-75.52-.03.014.031.006Zm-5.6-5.01h-.014l.008.007Zm64.609-21.442a.538.538,0,0,0-.056.021.435.435,0,0,1,.058.013v-.034ZM159.05,63.172c.022.047.038.088.057.133a1.129,1.129,0,0,0,.06-.138Zm81.275,31.564c.569.084.381.732.725.984q.014.291.027.591c-.675.405-1.677-.17-2.189.725a.763.763,0,0,0-.172.529l-1.144-.639-3.551.277-.628.033-4.1.25c-.842.507-2.142-.371-2.742.881l-.9-.424c0-.032-.011-.065-.011-.1a.581.581,0,0,1-.494-.077,2.016,2.016,0,0,1-.115.3c-1.458.827-3.129.514-4.673.872a4.178,4.178,0,0,0-.88.024,12.729,12.729,0,0,1-6.272.237,4.562,4.562,0,0,0-1,.494l3.158,2.792a.747.747,0,0,1-.621.692l-3.043-2.394a9.757,9.757,0,0,0-3.863-1.41,2.63,2.63,0,0,1-.863.209c-1.873.164-3.745.388-5.625.419q-.75.19-1.5.4l3.108,2.179a.891.891,0,0,1-.006,1.227l-1.186-.687-3.287-2.447v-.011l-2.929-1.208-1.132.053c-2.24.82-4.676.226-6.928.95q-2.295.35-4.61.49a2.009,2.009,0,0,1-2.136-1.108l-9.492-.3-1.133.157.012.015c-1.718-.524-3.4.556-5.148.065-1.033-.29-2.189-.24-2.965-1.055q-.464.085-.915.212c-.256-.044-.512-.091-.768-.138a55.278,55.278,0,0,1,6.676,2.114,69.718,69.718,0,0,1,11.848,6.24c.863.594,1.939.96,2.371,2.055a2.6,2.6,0,0,0,1.839,1.294c2.305.823,4.469,1.834,5.624,4.191l.654.544c2.708.666,4.525,2.656,6.47,4.416,2.754,2.493,5.208,5.294,7.938,7.814a3.673,3.673,0,0,1,1.229,2.271l2.017,2.231c1.034.454,1.842,1.032,1.375,2.354a.248.248,0,0,0-.03.019l6.742,6.171.353,1.038c.263.229.519.466.77.707a5.062,5.062,0,0,1,.812,1.058c2.1,4.088,4.284,8.13,6.116,12.363.807,1.866.794,3.8,1.394,5.631.417,1.759.767,3.531,1.277,5.259.254.862.608,1.625-.165,2.372a1.522,1.522,0,0,1-.791.335,54.654,54.654,0,0,1-8.342-4.211c-6.258-3.421-12.165-7.44-18.452-10.813a16.122,16.122,0,0,1-5.393-3.964,7.685,7.685,0,0,0-.461-.658c-7.1-4.083-13.952-8.551-20.633-13.284l-1.974-1.476a4.927,4.927,0,0,1-2.574-1.735l-6.579-4.272a24.98,24.98,0,0,0-4.9-3.551c-3.167-1.533-6.262-3.149-8.009-6.358h-.181a5.018,5.018,0,0,1-1.193-.3,49.054,49.054,0,0,1,10.348,13.821,24.587,24.587,0,0,0,3.88,5.7l4.018,6.778c1.3-.032,1.2.8,1.148,1.6h.107c1.623,2.478,3.978,4.53,4.5,7.655a3.841,3.841,0,0,1,1.3,2.312c1.946,1.152,1.877,3.376,2.727,5.112v.006a1.147,1.147,0,0,1,.584,1.173l.188.56c2.847,1.909,3.117,5.369,4.557,8.057a183.555,183.555,0,0,1,9.048,21.008,33.979,33.979,0,0,1,1.924,7.375c3.408,5.881,4.307,12.5,5.623,19l-.212.2c.13.026.259.051.389.069l.073,1.249a1.953,1.953,0,0,1,.554.533,35,35,0,0,1,2.421,9.8q-.348.24-.682.5c.039.023.075.039.115.064q.1.576.2,1.152a2.365,2.365,0,0,0,.46.122q1.748,9.636,3.493,19.274c.148,5.3,1.646,10.472,1.514,15.8l1.318,2.279c-.539.213-.572.715-.677,1.174l.982,11.69a3.3,3.3,0,0,1,.457,2.517l.664,7.056.071,1.177a27.6,27.6,0,0,1,.447,8.1v.105a.7.7,0,0,1,.463.1l-.023-.058a2.815,2.815,0,0,1,.238,2.929l.179,2.357.756,12.384c.163.122.222.254.177.394s-.094.21-.145.21l.874,15.812c.1.711-.14.9-.658.688a73.8,73.8,0,0,1-13,11.835,7.389,7.389,0,0,1-2.821,1.527c-1.109.118-.433-.875-.775-1.236q-.241-4.677-.483-9.355l-.022-1.774.379-2.384-.034-1.2-.92-17.522c.115-.327.192-.685.5-.84l-.093-2.276a.661.661,0,0,1-.341-.362c-.3-4.205-1.248-8.382-.539-12.63l-.07-1.163c-1.47-2.552-.507-5.375-.744-8.052-.325-3.672-.583-7.372-.567-11.071q-.151-1.392-.352-2.778a3.93,3.93,0,0,1-.555-.754,2.675,2.675,0,0,1,.267-2.675l-.848-13.429a4.541,4.541,0,0,1-.523-2.98l-.094-1.244c-.688-.741-.413-1.551-.159-2.351-.983-4.059-.738-8.319-2.024-12.328-.021-.208-.041-.407-.063-.608a6.594,6.594,0,0,1-.988-2.433c-.687-9.668-4.006-18.788-5.836-28.216-.731-3.772-2.834-7.052-3.566-10.8a5.407,5.407,0,0,1-.184-2.314,1.45,1.45,0,0,1,.4-.6l-.007,0-.4-.61-9.342-24.274c-.681-.328-.555-1-.664-1.565l-6.779-14.5a4.167,4.167,0,0,0-.471-.092l-.6-2.17c-.388-.024-.613-.291-.743-.69-.06-.47-.063-.969-.64-1.153a2.92,2.92,0,0,1-1.314-1.728,1.647,1.647,0,0,0-.149-.525c-.512-3.268-3.044-5.592-4.052-8.631a6.584,6.584,0,0,1-1.243-2.266l-6.857-13.223c-.526-.483-1.156-.9-1.085-1.754-.592-.9-1.569-1.6-1.517-2.843-1.281-1.1-2.543-2.213-2.243-4.163.01-.026.023-.046.034-.07a6.211,6.211,0,0,1-1.128-2.071c-.929-.586-.973-2.053-1.9-2.642,1.106,3.186,3.068,6.1,3.06,9.636.152,2.49,2.017,4.439,2.2,6.922,1.634,1.4,1.162,3.822,2.606,5.312.741.789,1.407,1.6.959,2.789q1.347,4.4,2.679,8.8c.082.272-.065.394-.331.294a2.465,2.465,0,0,1-.45-.3l-5.333-12.1,0,.007a6.781,6.781,0,0,0,.288.782c.12,1.892.952,3.822-.28,5.645a2.58,2.58,0,0,1-.674.023l.056.227q.007,1.231.014,2.465c.086.255.155.511.261.755.2.422.083.971.492,1.321a1.2,1.2,0,0,0,.13.565c2.383,3.136,4.042,6.547,3.983,10.6-1.049.854-1-.792-1.7-.746-1.15-.322-.933-1.463-1.341-2.228a1.468,1.468,0,0,0-.16-.554,2.222,2.222,0,0,1-1.408-1.757,5.46,5.46,0,0,1-1.246,3.661.489.489,0,0,0-.075.525.659.659,0,0,1-.455.246l-.117,1.579,1.007,3.339a1.3,1.3,0,0,1,.484.14c-.17,1.128.609,1.959.947,2.929l1.287,3.478-.6.6-3.27-6.287-.018-.012c-.254,2.481-.25,5.02-1.768,7.2a1.052,1.052,0,0,1-.346.173l1.261,3.39,1.841,5.752c.042.314-.079.669-.358.663-.788-.017-.663-.822-.963-1.269l-2-5.084a22.9,22.9,0,0,1-1.691,6.791,7.871,7.871,0,0,0,.525,7.416,1.37,1.37,0,0,1-.588,1.181c-.624-.687-1.631-.986-1.875-2.129a3.321,3.321,0,0,0-.886,2.972c-.294.808.212,1.907-.894,2.407-.22.981-.9,1.867-.62,2.954.069,1.589.162,3.186-1.392,4.246a2.871,2.871,0,0,1-.216.537l-.394,1.786-.564.18c-1.012-.561-.256-1.981-1.238-2.561,0-.077.01-.151.015-.228a.912.912,0,0,1-.743-.744c-.131-.478.011-1.07-.57-1.359a4.568,4.568,0,0,1-1.806-3.587c-.121,0-.221-.069-.291-.245q-.41-.854-.82-1.705l-3.679-7.623a2.357,2.357,0,0,1-.238-.012c-2.16-1.1-2.393-3.424-3.36-5.284-.28-1.493-1.57-2.605-1.642-4.182-2.13-2.888-1.39-6.254-1.243-9.488a13.973,13.973,0,0,1,.722-3.12V159c.044-.253.078-.507.119-.76a118.66,118.66,0,0,1,1.579-26.888q-.112-.686-.265-1.361a2.629,2.629,0,0,1,.177-1.312,4.646,4.646,0,0,0,.531-.27.347.347,0,0,0-.077-.025,12.423,12.423,0,0,1,.528-3.177c-2.45.8-3.468,3.277-5.458,4.631a37.051,37.051,0,0,0-2.842,2.5c-1.239.9-2.2,2.277-3.948,2.3a.016.016,0,0,1-.007-.013l-.425.522c-1.13,1.3-2.216,2.633-3.4,3.879-.531.557-1.092,1.454-1.963.863-1.413,1.35-2.737,2.838-4.856,3.107-.075-.043-.136-.088-.2-.131a7.874,7.874,0,0,0-2.026,2.881v.014c-.953,1.891-1.42,4.188-3.981,4.733-1.511-.335-1.051-1.114-.751-1.858-2.389,1.716-4.828,3.363-7.244,5.042a4.5,4.5,0,0,1-2.973,1.129c-1.415.272-2.255,1.45-3.415,2.122-1.361,2.033-3.046,3.512-5.7,3.357,0-.007-.01-.013-.01-.02l-.012.015-2.319,1.6-8.013,4.793c-.77.194.081,2.484-1.731,1.33l-9.725,5.379c-.92,1.538-1.718,1.444-2.262-.23-.352-1.1-.573-2.25-.852-3.377.482-1.132-.306-2.367.271-3.49-.407-.223-.206-.943-.6-1.176q-.109-.589-.21-1.18l.468-5.228c.128-1.545.021-3.164,1.35-4.34l1.139-3.553c.677-3.014,1.389-6.006,4.06-8.014l2.938-4.821a15.312,15.312,0,0,0,3.408-3.754c.753-2.113,2.442-3.511,4.053-4.863,3.764-3.165,7.024-7.006,11.7-9,1.414-.078,1.826-1.463,2.792-2.127a54.613,54.613,0,0,1,12.839-11.646c.108-.07.227-.138.35-.205-.724-.242-1.532-.313-2.046-.961-3.387.4-6.623-.854-9.97-.9l.014-.009-3.182-.747c-1.835-.377-4.023.633-5.442-1.377l-6.54-1.779c-2.937-.14-5.706-.756-7.97-2.8l.061-.172h-.625L37.473,92.844a36.434,36.434,0,0,1-14.765-7.681l-3.091-1.728c-2.491-.22-4.183-2-6.227-3.111a82.886,82.886,0,0,1-8.611-5.659C3.9,74.042,2.788,73.5,2.9,72.156l-.03.005-.37.019a15.457,15.457,0,0,1-1.814-.328,1.21,1.21,0,0,1-.618-.379L0,70.5A.867.867,0,0,1,.859,70c6.285-.659,12.524-1.871,18.911-1.159a14.793,14.793,0,0,0,5.521-.422L31.6,68.03c.289.052.4.2.354.437l.035-.005.683-.018c1.927-.363,3.928-.315,5.819-.9a5.515,5.515,0,0,1,4.061.845l5.129-.1c.807.361,1.656.055,2.48.155.209.073.42.141.633.2l.639-.127,2.348.063,2.266-.186h.008a.366.366,0,0,1,.312.414l.01-.009,1.6-.086c2.963-.115,5.9.7,8.874.223.542.51,1.3-.089,1.854.358l.587.166c.008.008.017.016.024.024a2.466,2.466,0,0,1,.238-.49c1.665-.568,3.324.106,4.986,0a108.338,108.338,0,0,1,11.229,2.278c1.317.565,2.682,1,4.041,1.458a27.228,27.228,0,0,0,2.688,1.033,30.414,30.414,0,0,1,6.192,2.873c-.912-.612-1.795-1.551-2.883-2.185-3.822-3.9-8.552-6.914-11.5-11.67l-.731-.714a1.889,1.889,0,0,1-1.133-1.013l-4.529-4.579a1.918,1.918,0,0,1-1.1-1.173l-2.682-2.775c-.389-.344-.975-.513-1.028-1.156l-3.876-4.572c-2.315-.88-2.657-3.048-3.3-5.02l-.831-2.33q-.088-.038-.174-.081a1.935,1.935,0,0,1-.788-2.618c.105-.033.2-.056.3-.08a1.181,1.181,0,0,1-.1-.143l-.718-1.189.236.034-.7-3.522-.5-8.244q-.055-.81-.112-1.61c.138-.12.28-.233.425-.343a10.246,10.246,0,0,1,.468-4.587c-.078-.831-1.66-.88-1.113-1.931.34-.654.974.19,1.488.035.27-1.491-.132-3.469,1.891-3.684-1.168-1.113-2.855-1.885-2.536-3.985,1.093-1.584,2.27-.908,3.454-.133,1.705,1.378,3.769,2.387,4.745,4.527l.611.538a2.559,2.559,0,0,1,1.91,1.628l2.49,1.64,1.707.759a2.573,2.573,0,0,1,2.161.648,95.77,95.77,0,0,1,10.411,7.937,2.665,2.665,0,0,1,1.1,1.654l2.5,2.229a8.422,8.422,0,0,1,1.424.543,5.033,5.033,0,0,1,.622.465c1.176,1.341,3.052,2.07,3.563,4l.612.565a.485.485,0,0,1,.206.456c0,.036-.012.065-.018.095,5.67,2.962,8.2,8.535,11.344,13.593A201.04,201.04,0,0,1,122.371,79.71c.495,1.985.857,4.009,1.281,6.009.889-3.875.745-7.8.623-11.731-.04-1.445-.42-2.9.1-4.334a156.967,156.967,0,0,1,.377-26.33,2.888,2.888,0,0,1-.508-.952c-.069-3.587,1.044-7.006,1.506-10.522a2.887,2.887,0,0,1,.73-1.187.958.958,0,0,0,.5-.193,11.232,11.232,0,0,1,.973-3.3,17.345,17.345,0,0,1,2.3-3.718c2.333-2.94,3.693-6.652,7-8.827l3.509-4.3c1.483-3.912,4.858-6.063,7.958-8.463.286-.22.678-.078,1.013.091L152.188,0a24.254,24.254,0,0,1-2.874,5.661l-1.592,3.064c.067.194.133.388.2.584-5.755,11.38-9.791,23.234-10.6,36.07-.314,4.85-1.089,9.67-1.4,14.68a105.471,105.471,0,0,1,14.049-12.327,3.752,3.752,0,0,0,2.41-1.344,3.689,3.689,0,0,0,2.223-1.346c.486-.968,1.893-.271,2.349-1.293,1.651-2.345,4.346-2.62,6.785-3.4.476-.061,1.045.09,1.268-.551l11.6-4.858c4.1-1.246,8.224-2.417,12.276-3.8.927-.317,1.876-.456,2.788-.766l7.091-2.021,4.645-.775,1.144-.287c1.342-.224,2.677-.513,4.024-.7a11.41,11.41,0,0,0,2.956-.979c1.748-.581,3.5-1.5,5.255-.039-.138.388-.274.773-.407,1.16a2.613,2.613,0,0,1-1.584,1.418c-.281.077-.56.159-.839.245l-5.231,5.226c4.1.662,8.209,1.253,11.821,3.523-3.391.384-6.471-1.278-9.771-1.5-1.522-.1-3.024-.6-4.546-.032l-3.4,3.241c-.8,1.344-1.377,2.932-3.286,3.02a1.409,1.409,0,0,1,.108.233,2.274,2.274,0,0,1-.087.321l.053-.017c2.75-1.714,4.878.007,7.089,1.271l4.612,1.821c-.034.143-.066.285-.1.427l-1.4.08a58.049,58.049,0,0,0-12-2.037,4.9,4.9,0,0,0-.819.492,2.448,2.448,0,0,1-1.163.275l-3.562,3.444a.682.682,0,0,1,.158.415,49.689,49.689,0,0,1,9.908,2.443c.953,1.526-.6.688-.736.649a81.476,81.476,0,0,0-9.978-1.747,4.408,4.408,0,0,0-2.4.681l-10.084,8.426c2.3,1.319,4.879-.383,7.2.673l4.8-.272.02.571-8.43.477c-2.448.931-5.211.471-7.589,1.716a34.858,34.858,0,0,1-5.643,4.485c.2.867.892.505,1.408.559.567.06,1.138.08,2.258.154-2.79,2.063-6.059,1.141-8.359,2.9a82.785,82.785,0,0,1-10,6.765,59.818,59.818,0,0,0,9.82-1.158l6.975-.614c6.391-1.064,12.784-1.689,19.191-.08.326.08.732-.166,1.1-.258a50.983,50.983,0,0,1,11.885,1.583,61.559,61.559,0,0,1,20.559,6.5,2.98,2.98,0,0,1,1.976,1.035c0,.292-.022.735.185.822,4.092,1.726,7.068,5.069,10.756,7.368a12.541,12.541,0,0,0,1.278.709,3.093,3.093,0,0,1,.618.5c.03.16.056.32.077.482l1.113.772Z" fill="#13616f"/>
  </g>
</svg>
