<svg xmlns="http://www.w3.org/2000/svg" xmlns:xlink="http://www.w3.org/1999/xlink" width="360.092" height="332.2" viewBox="0 0 360.092 332.2">
  <defs>
    <clipPath id="clip-path">
      <rect width="360.092" height="332.2" fill="none"/>
    </clipPath>
  </defs>
  <g id="Grille_de_répétition_4" data-name="Grille de répétition 4" clip-path="url(#clip-path)">
    <g transform="translate(5955 4045)">
      <circle id="Ellipse_292" data-name="Ellipse 292" cx="3" cy="3" r="3" transform="translate(-5955 -4045)" fill="#b0e2e6"/>
    </g>
    <g transform="translate(5981 4045)">
      <circle id="Ellipse_292-2" data-name="Ellipse 292" cx="3" cy="3" r="3" transform="translate(-5955 -4045)" fill="#b0e2e6"/>
    </g>
    <g transform="translate(6007 4045)">
      <circle id="Ellipse_292-3" data-name="Ellipse 292" cx="3" cy="3" r="3" transform="translate(-5955 -4045)" fill="#b0e2e6"/>
    </g>
    <g transform="translate(6033 4045)">
      <circle id="Ellipse_292-4" data-name="Ellipse 292" cx="3" cy="3" r="3" transform="translate(-5955 -4045)" fill="#b0e2e6"/>
    </g>
    <g transform="translate(6059 4045)">
      <circle id="Ellipse_292-5" data-name="Ellipse 292" cx="3" cy="3" r="3" transform="translate(-5955 -4045)" fill="#b0e2e6"/>
    </g>
    <g transform="translate(6085 4045)">
      <circle id="Ellipse_292-6" data-name="Ellipse 292" cx="3" cy="3" r="3" transform="translate(-5955 -4045)" fill="#b0e2e6"/>
    </g>
    <g transform="translate(6111 4045)">
      <circle id="Ellipse_292-7" data-name="Ellipse 292" cx="3" cy="3" r="3" transform="translate(-5955 -4045)" fill="#b0e2e6"/>
    </g>
    <g transform="translate(6137 4045)">
      <circle id="Ellipse_292-8" data-name="Ellipse 292" cx="3" cy="3" r="3" transform="translate(-5955 -4045)" fill="#b0e2e6"/>
    </g>
    <g transform="translate(6163 4045)">
      <circle id="Ellipse_292-9" data-name="Ellipse 292" cx="3" cy="3" r="3" transform="translate(-5955 -4045)" fill="#b0e2e6"/>
    </g>
    <g transform="translate(6189 4045)">
      <circle id="Ellipse_292-10" data-name="Ellipse 292" cx="3" cy="3" r="3" transform="translate(-5955 -4045)" fill="#b0e2e6"/>
    </g>
    <g transform="translate(6215 4045)">
      <circle id="Ellipse_292-11" data-name="Ellipse 292" cx="3" cy="3" r="3" transform="translate(-5955 -4045)" fill="#b0e2e6"/>
    </g>
    <g transform="translate(6241 4045)">
      <circle id="Ellipse_292-12" data-name="Ellipse 292" cx="3" cy="3" r="3" transform="translate(-5955 -4045)" fill="#b0e2e6"/>
    </g>
    <g transform="translate(6267 4045)">
      <circle id="Ellipse_292-13" data-name="Ellipse 292" cx="3" cy="3" r="3" transform="translate(-5955 -4045)" fill="#b0e2e6"/>
    </g>
    <g transform="translate(6293 4045)">
      <circle id="Ellipse_292-14" data-name="Ellipse 292" cx="3" cy="3" r="3" transform="translate(-5955 -4045)" fill="#b0e2e6"/>
    </g>
    <g transform="translate(5955 4071)">
      <circle id="Ellipse_292-15" data-name="Ellipse 292" cx="3" cy="3" r="3" transform="translate(-5955 -4045)" fill="#b0e2e6"/>
    </g>
    <g transform="translate(5981 4071)">
      <circle id="Ellipse_292-16" data-name="Ellipse 292" cx="3" cy="3" r="3" transform="translate(-5955 -4045)" fill="#b0e2e6"/>
    </g>
    <g transform="translate(6007 4071)">
      <circle id="Ellipse_292-17" data-name="Ellipse 292" cx="3" cy="3" r="3" transform="translate(-5955 -4045)" fill="#b0e2e6"/>
    </g>
    <g transform="translate(6033 4071)">
      <circle id="Ellipse_292-18" data-name="Ellipse 292" cx="3" cy="3" r="3" transform="translate(-5955 -4045)" fill="#b0e2e6"/>
    </g>
    <g transform="translate(6059 4071)">
      <circle id="Ellipse_292-19" data-name="Ellipse 292" cx="3" cy="3" r="3" transform="translate(-5955 -4045)" fill="#b0e2e6"/>
    </g>
    <g transform="translate(6085 4071)">
      <circle id="Ellipse_292-20" data-name="Ellipse 292" cx="3" cy="3" r="3" transform="translate(-5955 -4045)" fill="#b0e2e6"/>
    </g>
    <g transform="translate(6111 4071)">
      <circle id="Ellipse_292-21" data-name="Ellipse 292" cx="3" cy="3" r="3" transform="translate(-5955 -4045)" fill="#b0e2e6"/>
    </g>
    <g transform="translate(6137 4071)">
      <circle id="Ellipse_292-22" data-name="Ellipse 292" cx="3" cy="3" r="3" transform="translate(-5955 -4045)" fill="#b0e2e6"/>
    </g>
    <g transform="translate(6163 4071)">
      <circle id="Ellipse_292-23" data-name="Ellipse 292" cx="3" cy="3" r="3" transform="translate(-5955 -4045)" fill="#b0e2e6"/>
    </g>
    <g transform="translate(6189 4071)">
      <circle id="Ellipse_292-24" data-name="Ellipse 292" cx="3" cy="3" r="3" transform="translate(-5955 -4045)" fill="#b0e2e6"/>
    </g>
    <g transform="translate(6215 4071)">
      <circle id="Ellipse_292-25" data-name="Ellipse 292" cx="3" cy="3" r="3" transform="translate(-5955 -4045)" fill="#b0e2e6"/>
    </g>
    <g transform="translate(6241 4071)">
      <circle id="Ellipse_292-26" data-name="Ellipse 292" cx="3" cy="3" r="3" transform="translate(-5955 -4045)" fill="#b0e2e6"/>
    </g>
    <g transform="translate(6267 4071)">
      <circle id="Ellipse_292-27" data-name="Ellipse 292" cx="3" cy="3" r="3" transform="translate(-5955 -4045)" fill="#b0e2e6"/>
    </g>
    <g transform="translate(6293 4071)">
      <circle id="Ellipse_292-28" data-name="Ellipse 292" cx="3" cy="3" r="3" transform="translate(-5955 -4045)" fill="#b0e2e6"/>
    </g>
    <g transform="translate(5955 4097)">
      <circle id="Ellipse_292-29" data-name="Ellipse 292" cx="3" cy="3" r="3" transform="translate(-5955 -4045)" fill="#b0e2e6"/>
    </g>
    <g transform="translate(5981 4097)">
      <circle id="Ellipse_292-30" data-name="Ellipse 292" cx="3" cy="3" r="3" transform="translate(-5955 -4045)" fill="#b0e2e6"/>
    </g>
    <g transform="translate(6007 4097)">
      <circle id="Ellipse_292-31" data-name="Ellipse 292" cx="3" cy="3" r="3" transform="translate(-5955 -4045)" fill="#b0e2e6"/>
    </g>
    <g transform="translate(6033 4097)">
      <circle id="Ellipse_292-32" data-name="Ellipse 292" cx="3" cy="3" r="3" transform="translate(-5955 -4045)" fill="#b0e2e6"/>
    </g>
    <g transform="translate(6059 4097)">
      <circle id="Ellipse_292-33" data-name="Ellipse 292" cx="3" cy="3" r="3" transform="translate(-5955 -4045)" fill="#b0e2e6"/>
    </g>
    <g transform="translate(6085 4097)">
      <circle id="Ellipse_292-34" data-name="Ellipse 292" cx="3" cy="3" r="3" transform="translate(-5955 -4045)" fill="#b0e2e6"/>
    </g>
    <g transform="translate(6111 4097)">
      <circle id="Ellipse_292-35" data-name="Ellipse 292" cx="3" cy="3" r="3" transform="translate(-5955 -4045)" fill="#b0e2e6"/>
    </g>
    <g transform="translate(6137 4097)">
      <circle id="Ellipse_292-36" data-name="Ellipse 292" cx="3" cy="3" r="3" transform="translate(-5955 -4045)" fill="#b0e2e6"/>
    </g>
    <g transform="translate(6163 4097)">
      <circle id="Ellipse_292-37" data-name="Ellipse 292" cx="3" cy="3" r="3" transform="translate(-5955 -4045)" fill="#b0e2e6"/>
    </g>
    <g transform="translate(6189 4097)">
      <circle id="Ellipse_292-38" data-name="Ellipse 292" cx="3" cy="3" r="3" transform="translate(-5955 -4045)" fill="#b0e2e6"/>
    </g>
    <g transform="translate(6215 4097)">
      <circle id="Ellipse_292-39" data-name="Ellipse 292" cx="3" cy="3" r="3" transform="translate(-5955 -4045)" fill="#b0e2e6"/>
    </g>
    <g transform="translate(6241 4097)">
      <circle id="Ellipse_292-40" data-name="Ellipse 292" cx="3" cy="3" r="3" transform="translate(-5955 -4045)" fill="#b0e2e6"/>
    </g>
    <g transform="translate(6267 4097)">
      <circle id="Ellipse_292-41" data-name="Ellipse 292" cx="3" cy="3" r="3" transform="translate(-5955 -4045)" fill="#b0e2e6"/>
    </g>
    <g transform="translate(6293 4097)">
      <circle id="Ellipse_292-42" data-name="Ellipse 292" cx="3" cy="3" r="3" transform="translate(-5955 -4045)" fill="#b0e2e6"/>
    </g>
    <g transform="translate(5955 4123)">
      <circle id="Ellipse_292-43" data-name="Ellipse 292" cx="3" cy="3" r="3" transform="translate(-5955 -4045)" fill="#b0e2e6"/>
    </g>
    <g transform="translate(5981 4123)">
      <circle id="Ellipse_292-44" data-name="Ellipse 292" cx="3" cy="3" r="3" transform="translate(-5955 -4045)" fill="#b0e2e6"/>
    </g>
    <g transform="translate(6007 4123)">
      <circle id="Ellipse_292-45" data-name="Ellipse 292" cx="3" cy="3" r="3" transform="translate(-5955 -4045)" fill="#b0e2e6"/>
    </g>
    <g transform="translate(6033 4123)">
      <circle id="Ellipse_292-46" data-name="Ellipse 292" cx="3" cy="3" r="3" transform="translate(-5955 -4045)" fill="#b0e2e6"/>
    </g>
    <g transform="translate(6059 4123)">
      <circle id="Ellipse_292-47" data-name="Ellipse 292" cx="3" cy="3" r="3" transform="translate(-5955 -4045)" fill="#b0e2e6"/>
    </g>
    <g transform="translate(6085 4123)">
      <circle id="Ellipse_292-48" data-name="Ellipse 292" cx="3" cy="3" r="3" transform="translate(-5955 -4045)" fill="#b0e2e6"/>
    </g>
    <g transform="translate(6111 4123)">
      <circle id="Ellipse_292-49" data-name="Ellipse 292" cx="3" cy="3" r="3" transform="translate(-5955 -4045)" fill="#b0e2e6"/>
    </g>
    <g transform="translate(6137 4123)">
      <circle id="Ellipse_292-50" data-name="Ellipse 292" cx="3" cy="3" r="3" transform="translate(-5955 -4045)" fill="#b0e2e6"/>
    </g>
    <g transform="translate(6163 4123)">
      <circle id="Ellipse_292-51" data-name="Ellipse 292" cx="3" cy="3" r="3" transform="translate(-5955 -4045)" fill="#b0e2e6"/>
    </g>
    <g transform="translate(6189 4123)">
      <circle id="Ellipse_292-52" data-name="Ellipse 292" cx="3" cy="3" r="3" transform="translate(-5955 -4045)" fill="#b0e2e6"/>
    </g>
    <g transform="translate(6215 4123)">
      <circle id="Ellipse_292-53" data-name="Ellipse 292" cx="3" cy="3" r="3" transform="translate(-5955 -4045)" fill="#b0e2e6"/>
    </g>
    <g transform="translate(6241 4123)">
      <circle id="Ellipse_292-54" data-name="Ellipse 292" cx="3" cy="3" r="3" transform="translate(-5955 -4045)" fill="#b0e2e6"/>
    </g>
    <g transform="translate(6267 4123)">
      <circle id="Ellipse_292-55" data-name="Ellipse 292" cx="3" cy="3" r="3" transform="translate(-5955 -4045)" fill="#b0e2e6"/>
    </g>
    <g transform="translate(6293 4123)">
      <circle id="Ellipse_292-56" data-name="Ellipse 292" cx="3" cy="3" r="3" transform="translate(-5955 -4045)" fill="#b0e2e6"/>
    </g>
    <g transform="translate(5955 4149)">
      <circle id="Ellipse_292-57" data-name="Ellipse 292" cx="3" cy="3" r="3" transform="translate(-5955 -4045)" fill="#b0e2e6"/>
    </g>
    <g transform="translate(5981 4149)">
      <circle id="Ellipse_292-58" data-name="Ellipse 292" cx="3" cy="3" r="3" transform="translate(-5955 -4045)" fill="#b0e2e6"/>
    </g>
    <g transform="translate(6007 4149)">
      <circle id="Ellipse_292-59" data-name="Ellipse 292" cx="3" cy="3" r="3" transform="translate(-5955 -4045)" fill="#b0e2e6"/>
    </g>
    <g transform="translate(6033 4149)">
      <circle id="Ellipse_292-60" data-name="Ellipse 292" cx="3" cy="3" r="3" transform="translate(-5955 -4045)" fill="#b0e2e6"/>
    </g>
    <g transform="translate(6059 4149)">
      <circle id="Ellipse_292-61" data-name="Ellipse 292" cx="3" cy="3" r="3" transform="translate(-5955 -4045)" fill="#b0e2e6"/>
    </g>
    <g transform="translate(6085 4149)">
      <circle id="Ellipse_292-62" data-name="Ellipse 292" cx="3" cy="3" r="3" transform="translate(-5955 -4045)" fill="#b0e2e6"/>
    </g>
    <g transform="translate(6111 4149)">
      <circle id="Ellipse_292-63" data-name="Ellipse 292" cx="3" cy="3" r="3" transform="translate(-5955 -4045)" fill="#b0e2e6"/>
    </g>
    <g transform="translate(6137 4149)">
      <circle id="Ellipse_292-64" data-name="Ellipse 292" cx="3" cy="3" r="3" transform="translate(-5955 -4045)" fill="#b0e2e6"/>
    </g>
    <g transform="translate(6163 4149)">
      <circle id="Ellipse_292-65" data-name="Ellipse 292" cx="3" cy="3" r="3" transform="translate(-5955 -4045)" fill="#b0e2e6"/>
    </g>
    <g transform="translate(6189 4149)">
      <circle id="Ellipse_292-66" data-name="Ellipse 292" cx="3" cy="3" r="3" transform="translate(-5955 -4045)" fill="#b0e2e6"/>
    </g>
    <g transform="translate(6215 4149)">
      <circle id="Ellipse_292-67" data-name="Ellipse 292" cx="3" cy="3" r="3" transform="translate(-5955 -4045)" fill="#b0e2e6"/>
    </g>
    <g transform="translate(6241 4149)">
      <circle id="Ellipse_292-68" data-name="Ellipse 292" cx="3" cy="3" r="3" transform="translate(-5955 -4045)" fill="#b0e2e6"/>
    </g>
    <g transform="translate(6267 4149)">
      <circle id="Ellipse_292-69" data-name="Ellipse 292" cx="3" cy="3" r="3" transform="translate(-5955 -4045)" fill="#b0e2e6"/>
    </g>
    <g transform="translate(6293 4149)">
      <circle id="Ellipse_292-70" data-name="Ellipse 292" cx="3" cy="3" r="3" transform="translate(-5955 -4045)" fill="#b0e2e6"/>
    </g>
    <g transform="translate(5955 4175)">
      <circle id="Ellipse_292-71" data-name="Ellipse 292" cx="3" cy="3" r="3" transform="translate(-5955 -4045)" fill="#b0e2e6"/>
    </g>
    <g transform="translate(5981 4175)">
      <circle id="Ellipse_292-72" data-name="Ellipse 292" cx="3" cy="3" r="3" transform="translate(-5955 -4045)" fill="#b0e2e6"/>
    </g>
    <g transform="translate(6007 4175)">
      <circle id="Ellipse_292-73" data-name="Ellipse 292" cx="3" cy="3" r="3" transform="translate(-5955 -4045)" fill="#b0e2e6"/>
    </g>
    <g transform="translate(6033 4175)">
      <circle id="Ellipse_292-74" data-name="Ellipse 292" cx="3" cy="3" r="3" transform="translate(-5955 -4045)" fill="#b0e2e6"/>
    </g>
    <g transform="translate(6059 4175)">
      <circle id="Ellipse_292-75" data-name="Ellipse 292" cx="3" cy="3" r="3" transform="translate(-5955 -4045)" fill="#b0e2e6"/>
    </g>
    <g transform="translate(6085 4175)">
      <circle id="Ellipse_292-76" data-name="Ellipse 292" cx="3" cy="3" r="3" transform="translate(-5955 -4045)" fill="#b0e2e6"/>
    </g>
    <g transform="translate(6111 4175)">
      <circle id="Ellipse_292-77" data-name="Ellipse 292" cx="3" cy="3" r="3" transform="translate(-5955 -4045)" fill="#b0e2e6"/>
    </g>
    <g transform="translate(6137 4175)">
      <circle id="Ellipse_292-78" data-name="Ellipse 292" cx="3" cy="3" r="3" transform="translate(-5955 -4045)" fill="#b0e2e6"/>
    </g>
    <g transform="translate(6163 4175)">
      <circle id="Ellipse_292-79" data-name="Ellipse 292" cx="3" cy="3" r="3" transform="translate(-5955 -4045)" fill="#b0e2e6"/>
    </g>
    <g transform="translate(6189 4175)">
      <circle id="Ellipse_292-80" data-name="Ellipse 292" cx="3" cy="3" r="3" transform="translate(-5955 -4045)" fill="#b0e2e6"/>
    </g>
    <g transform="translate(6215 4175)">
      <circle id="Ellipse_292-81" data-name="Ellipse 292" cx="3" cy="3" r="3" transform="translate(-5955 -4045)" fill="#b0e2e6"/>
    </g>
    <g transform="translate(6241 4175)">
      <circle id="Ellipse_292-82" data-name="Ellipse 292" cx="3" cy="3" r="3" transform="translate(-5955 -4045)" fill="#b0e2e6"/>
    </g>
    <g transform="translate(6267 4175)">
      <circle id="Ellipse_292-83" data-name="Ellipse 292" cx="3" cy="3" r="3" transform="translate(-5955 -4045)" fill="#b0e2e6"/>
    </g>
    <g transform="translate(6293 4175)">
      <circle id="Ellipse_292-84" data-name="Ellipse 292" cx="3" cy="3" r="3" transform="translate(-5955 -4045)" fill="#b0e2e6"/>
    </g>
    <g transform="translate(5955 4201)">
      <circle id="Ellipse_292-85" data-name="Ellipse 292" cx="3" cy="3" r="3" transform="translate(-5955 -4045)" fill="#b0e2e6"/>
    </g>
    <g transform="translate(5981 4201)">
      <circle id="Ellipse_292-86" data-name="Ellipse 292" cx="3" cy="3" r="3" transform="translate(-5955 -4045)" fill="#b0e2e6"/>
    </g>
    <g transform="translate(6007 4201)">
      <circle id="Ellipse_292-87" data-name="Ellipse 292" cx="3" cy="3" r="3" transform="translate(-5955 -4045)" fill="#b0e2e6"/>
    </g>
    <g transform="translate(6033 4201)">
      <circle id="Ellipse_292-88" data-name="Ellipse 292" cx="3" cy="3" r="3" transform="translate(-5955 -4045)" fill="#b0e2e6"/>
    </g>
    <g transform="translate(6059 4201)">
      <circle id="Ellipse_292-89" data-name="Ellipse 292" cx="3" cy="3" r="3" transform="translate(-5955 -4045)" fill="#b0e2e6"/>
    </g>
    <g transform="translate(6085 4201)">
      <circle id="Ellipse_292-90" data-name="Ellipse 292" cx="3" cy="3" r="3" transform="translate(-5955 -4045)" fill="#b0e2e6"/>
    </g>
    <g transform="translate(6111 4201)">
      <circle id="Ellipse_292-91" data-name="Ellipse 292" cx="3" cy="3" r="3" transform="translate(-5955 -4045)" fill="#b0e2e6"/>
    </g>
    <g transform="translate(6137 4201)">
      <circle id="Ellipse_292-92" data-name="Ellipse 292" cx="3" cy="3" r="3" transform="translate(-5955 -4045)" fill="#b0e2e6"/>
    </g>
    <g transform="translate(6163 4201)">
      <circle id="Ellipse_292-93" data-name="Ellipse 292" cx="3" cy="3" r="3" transform="translate(-5955 -4045)" fill="#b0e2e6"/>
    </g>
    <g transform="translate(6189 4201)">
      <circle id="Ellipse_292-94" data-name="Ellipse 292" cx="3" cy="3" r="3" transform="translate(-5955 -4045)" fill="#b0e2e6"/>
    </g>
    <g transform="translate(6215 4201)">
      <circle id="Ellipse_292-95" data-name="Ellipse 292" cx="3" cy="3" r="3" transform="translate(-5955 -4045)" fill="#b0e2e6"/>
    </g>
    <g transform="translate(6241 4201)">
      <circle id="Ellipse_292-96" data-name="Ellipse 292" cx="3" cy="3" r="3" transform="translate(-5955 -4045)" fill="#b0e2e6"/>
    </g>
    <g transform="translate(6267 4201)">
      <circle id="Ellipse_292-97" data-name="Ellipse 292" cx="3" cy="3" r="3" transform="translate(-5955 -4045)" fill="#b0e2e6"/>
    </g>
    <g transform="translate(6293 4201)">
      <circle id="Ellipse_292-98" data-name="Ellipse 292" cx="3" cy="3" r="3" transform="translate(-5955 -4045)" fill="#b0e2e6"/>
    </g>
    <g transform="translate(5955 4227)">
      <circle id="Ellipse_292-99" data-name="Ellipse 292" cx="3" cy="3" r="3" transform="translate(-5955 -4045)" fill="#b0e2e6"/>
    </g>
    <g transform="translate(5981 4227)">
      <circle id="Ellipse_292-100" data-name="Ellipse 292" cx="3" cy="3" r="3" transform="translate(-5955 -4045)" fill="#b0e2e6"/>
    </g>
    <g transform="translate(6007 4227)">
      <circle id="Ellipse_292-101" data-name="Ellipse 292" cx="3" cy="3" r="3" transform="translate(-5955 -4045)" fill="#b0e2e6"/>
    </g>
    <g transform="translate(6033 4227)">
      <circle id="Ellipse_292-102" data-name="Ellipse 292" cx="3" cy="3" r="3" transform="translate(-5955 -4045)" fill="#b0e2e6"/>
    </g>
    <g transform="translate(6059 4227)">
      <circle id="Ellipse_292-103" data-name="Ellipse 292" cx="3" cy="3" r="3" transform="translate(-5955 -4045)" fill="#b0e2e6"/>
    </g>
    <g transform="translate(6085 4227)">
      <circle id="Ellipse_292-104" data-name="Ellipse 292" cx="3" cy="3" r="3" transform="translate(-5955 -4045)" fill="#b0e2e6"/>
    </g>
    <g transform="translate(6111 4227)">
      <circle id="Ellipse_292-105" data-name="Ellipse 292" cx="3" cy="3" r="3" transform="translate(-5955 -4045)" fill="#b0e2e6"/>
    </g>
    <g transform="translate(6137 4227)">
      <circle id="Ellipse_292-106" data-name="Ellipse 292" cx="3" cy="3" r="3" transform="translate(-5955 -4045)" fill="#b0e2e6"/>
    </g>
    <g transform="translate(6163 4227)">
      <circle id="Ellipse_292-107" data-name="Ellipse 292" cx="3" cy="3" r="3" transform="translate(-5955 -4045)" fill="#b0e2e6"/>
    </g>
    <g transform="translate(6189 4227)">
      <circle id="Ellipse_292-108" data-name="Ellipse 292" cx="3" cy="3" r="3" transform="translate(-5955 -4045)" fill="#b0e2e6"/>
    </g>
    <g transform="translate(6215 4227)">
      <circle id="Ellipse_292-109" data-name="Ellipse 292" cx="3" cy="3" r="3" transform="translate(-5955 -4045)" fill="#b0e2e6"/>
    </g>
    <g transform="translate(6241 4227)">
      <circle id="Ellipse_292-110" data-name="Ellipse 292" cx="3" cy="3" r="3" transform="translate(-5955 -4045)" fill="#b0e2e6"/>
    </g>
    <g transform="translate(6267 4227)">
      <circle id="Ellipse_292-111" data-name="Ellipse 292" cx="3" cy="3" r="3" transform="translate(-5955 -4045)" fill="#b0e2e6"/>
    </g>
    <g transform="translate(6293 4227)">
      <circle id="Ellipse_292-112" data-name="Ellipse 292" cx="3" cy="3" r="3" transform="translate(-5955 -4045)" fill="#b0e2e6"/>
    </g>
    <g transform="translate(5955 4253)">
      <circle id="Ellipse_292-113" data-name="Ellipse 292" cx="3" cy="3" r="3" transform="translate(-5955 -4045)" fill="#b0e2e6"/>
    </g>
    <g transform="translate(5981 4253)">
      <circle id="Ellipse_292-114" data-name="Ellipse 292" cx="3" cy="3" r="3" transform="translate(-5955 -4045)" fill="#b0e2e6"/>
    </g>
    <g transform="translate(6007 4253)">
      <circle id="Ellipse_292-115" data-name="Ellipse 292" cx="3" cy="3" r="3" transform="translate(-5955 -4045)" fill="#b0e2e6"/>
    </g>
    <g transform="translate(6033 4253)">
      <circle id="Ellipse_292-116" data-name="Ellipse 292" cx="3" cy="3" r="3" transform="translate(-5955 -4045)" fill="#b0e2e6"/>
    </g>
    <g transform="translate(6059 4253)">
      <circle id="Ellipse_292-117" data-name="Ellipse 292" cx="3" cy="3" r="3" transform="translate(-5955 -4045)" fill="#b0e2e6"/>
    </g>
    <g transform="translate(6085 4253)">
      <circle id="Ellipse_292-118" data-name="Ellipse 292" cx="3" cy="3" r="3" transform="translate(-5955 -4045)" fill="#b0e2e6"/>
    </g>
    <g transform="translate(6111 4253)">
      <circle id="Ellipse_292-119" data-name="Ellipse 292" cx="3" cy="3" r="3" transform="translate(-5955 -4045)" fill="#b0e2e6"/>
    </g>
    <g transform="translate(6137 4253)">
      <circle id="Ellipse_292-120" data-name="Ellipse 292" cx="3" cy="3" r="3" transform="translate(-5955 -4045)" fill="#b0e2e6"/>
    </g>
    <g transform="translate(6163 4253)">
      <circle id="Ellipse_292-121" data-name="Ellipse 292" cx="3" cy="3" r="3" transform="translate(-5955 -4045)" fill="#b0e2e6"/>
    </g>
    <g transform="translate(6189 4253)">
      <circle id="Ellipse_292-122" data-name="Ellipse 292" cx="3" cy="3" r="3" transform="translate(-5955 -4045)" fill="#b0e2e6"/>
    </g>
    <g transform="translate(6215 4253)">
      <circle id="Ellipse_292-123" data-name="Ellipse 292" cx="3" cy="3" r="3" transform="translate(-5955 -4045)" fill="#b0e2e6"/>
    </g>
    <g transform="translate(6241 4253)">
      <circle id="Ellipse_292-124" data-name="Ellipse 292" cx="3" cy="3" r="3" transform="translate(-5955 -4045)" fill="#b0e2e6"/>
    </g>
    <g transform="translate(6267 4253)">
      <circle id="Ellipse_292-125" data-name="Ellipse 292" cx="3" cy="3" r="3" transform="translate(-5955 -4045)" fill="#b0e2e6"/>
    </g>
    <g transform="translate(6293 4253)">
      <circle id="Ellipse_292-126" data-name="Ellipse 292" cx="3" cy="3" r="3" transform="translate(-5955 -4045)" fill="#b0e2e6"/>
    </g>
    <g transform="translate(5955 4279)">
      <circle id="Ellipse_292-127" data-name="Ellipse 292" cx="3" cy="3" r="3" transform="translate(-5955 -4045)" fill="#b0e2e6"/>
    </g>
    <g transform="translate(5981 4279)">
      <circle id="Ellipse_292-128" data-name="Ellipse 292" cx="3" cy="3" r="3" transform="translate(-5955 -4045)" fill="#b0e2e6"/>
    </g>
    <g transform="translate(6007 4279)">
      <circle id="Ellipse_292-129" data-name="Ellipse 292" cx="3" cy="3" r="3" transform="translate(-5955 -4045)" fill="#b0e2e6"/>
    </g>
    <g transform="translate(6033 4279)">
      <circle id="Ellipse_292-130" data-name="Ellipse 292" cx="3" cy="3" r="3" transform="translate(-5955 -4045)" fill="#b0e2e6"/>
    </g>
    <g transform="translate(6059 4279)">
      <circle id="Ellipse_292-131" data-name="Ellipse 292" cx="3" cy="3" r="3" transform="translate(-5955 -4045)" fill="#b0e2e6"/>
    </g>
    <g transform="translate(6085 4279)">
      <circle id="Ellipse_292-132" data-name="Ellipse 292" cx="3" cy="3" r="3" transform="translate(-5955 -4045)" fill="#b0e2e6"/>
    </g>
    <g transform="translate(6111 4279)">
      <circle id="Ellipse_292-133" data-name="Ellipse 292" cx="3" cy="3" r="3" transform="translate(-5955 -4045)" fill="#b0e2e6"/>
    </g>
    <g transform="translate(6137 4279)">
      <circle id="Ellipse_292-134" data-name="Ellipse 292" cx="3" cy="3" r="3" transform="translate(-5955 -4045)" fill="#b0e2e6"/>
    </g>
    <g transform="translate(6163 4279)">
      <circle id="Ellipse_292-135" data-name="Ellipse 292" cx="3" cy="3" r="3" transform="translate(-5955 -4045)" fill="#b0e2e6"/>
    </g>
    <g transform="translate(6189 4279)">
      <circle id="Ellipse_292-136" data-name="Ellipse 292" cx="3" cy="3" r="3" transform="translate(-5955 -4045)" fill="#b0e2e6"/>
    </g>
    <g transform="translate(6215 4279)">
      <circle id="Ellipse_292-137" data-name="Ellipse 292" cx="3" cy="3" r="3" transform="translate(-5955 -4045)" fill="#b0e2e6"/>
    </g>
    <g transform="translate(6241 4279)">
      <circle id="Ellipse_292-138" data-name="Ellipse 292" cx="3" cy="3" r="3" transform="translate(-5955 -4045)" fill="#b0e2e6"/>
    </g>
    <g transform="translate(6267 4279)">
      <circle id="Ellipse_292-139" data-name="Ellipse 292" cx="3" cy="3" r="3" transform="translate(-5955 -4045)" fill="#b0e2e6"/>
    </g>
    <g transform="translate(6293 4279)">
      <circle id="Ellipse_292-140" data-name="Ellipse 292" cx="3" cy="3" r="3" transform="translate(-5955 -4045)" fill="#b0e2e6"/>
    </g>
    <g transform="translate(5955 4305)">
      <circle id="Ellipse_292-141" data-name="Ellipse 292" cx="3" cy="3" r="3" transform="translate(-5955 -4045)" fill="#b0e2e6"/>
    </g>
    <g transform="translate(5981 4305)">
      <circle id="Ellipse_292-142" data-name="Ellipse 292" cx="3" cy="3" r="3" transform="translate(-5955 -4045)" fill="#b0e2e6"/>
    </g>
    <g transform="translate(6007 4305)">
      <circle id="Ellipse_292-143" data-name="Ellipse 292" cx="3" cy="3" r="3" transform="translate(-5955 -4045)" fill="#b0e2e6"/>
    </g>
    <g transform="translate(6033 4305)">
      <circle id="Ellipse_292-144" data-name="Ellipse 292" cx="3" cy="3" r="3" transform="translate(-5955 -4045)" fill="#b0e2e6"/>
    </g>
    <g transform="translate(6059 4305)">
      <circle id="Ellipse_292-145" data-name="Ellipse 292" cx="3" cy="3" r="3" transform="translate(-5955 -4045)" fill="#b0e2e6"/>
    </g>
    <g transform="translate(6085 4305)">
      <circle id="Ellipse_292-146" data-name="Ellipse 292" cx="3" cy="3" r="3" transform="translate(-5955 -4045)" fill="#b0e2e6"/>
    </g>
    <g transform="translate(6111 4305)">
      <circle id="Ellipse_292-147" data-name="Ellipse 292" cx="3" cy="3" r="3" transform="translate(-5955 -4045)" fill="#b0e2e6"/>
    </g>
    <g transform="translate(6137 4305)">
      <circle id="Ellipse_292-148" data-name="Ellipse 292" cx="3" cy="3" r="3" transform="translate(-5955 -4045)" fill="#b0e2e6"/>
    </g>
    <g transform="translate(6163 4305)">
      <circle id="Ellipse_292-149" data-name="Ellipse 292" cx="3" cy="3" r="3" transform="translate(-5955 -4045)" fill="#b0e2e6"/>
    </g>
    <g transform="translate(6189 4305)">
      <circle id="Ellipse_292-150" data-name="Ellipse 292" cx="3" cy="3" r="3" transform="translate(-5955 -4045)" fill="#b0e2e6"/>
    </g>
    <g transform="translate(6215 4305)">
      <circle id="Ellipse_292-151" data-name="Ellipse 292" cx="3" cy="3" r="3" transform="translate(-5955 -4045)" fill="#b0e2e6"/>
    </g>
    <g transform="translate(6241 4305)">
      <circle id="Ellipse_292-152" data-name="Ellipse 292" cx="3" cy="3" r="3" transform="translate(-5955 -4045)" fill="#b0e2e6"/>
    </g>
    <g transform="translate(6267 4305)">
      <circle id="Ellipse_292-153" data-name="Ellipse 292" cx="3" cy="3" r="3" transform="translate(-5955 -4045)" fill="#b0e2e6"/>
    </g>
    <g transform="translate(6293 4305)">
      <circle id="Ellipse_292-154" data-name="Ellipse 292" cx="3" cy="3" r="3" transform="translate(-5955 -4045)" fill="#b0e2e6"/>
    </g>
    <g transform="translate(5955 4331)">
      <circle id="Ellipse_292-155" data-name="Ellipse 292" cx="3" cy="3" r="3" transform="translate(-5955 -4045)" fill="#b0e2e6"/>
    </g>
    <g transform="translate(5981 4331)">
      <circle id="Ellipse_292-156" data-name="Ellipse 292" cx="3" cy="3" r="3" transform="translate(-5955 -4045)" fill="#b0e2e6"/>
    </g>
    <g transform="translate(6007 4331)">
      <circle id="Ellipse_292-157" data-name="Ellipse 292" cx="3" cy="3" r="3" transform="translate(-5955 -4045)" fill="#b0e2e6"/>
    </g>
    <g transform="translate(6033 4331)">
      <circle id="Ellipse_292-158" data-name="Ellipse 292" cx="3" cy="3" r="3" transform="translate(-5955 -4045)" fill="#b0e2e6"/>
    </g>
    <g transform="translate(6059 4331)">
      <circle id="Ellipse_292-159" data-name="Ellipse 292" cx="3" cy="3" r="3" transform="translate(-5955 -4045)" fill="#b0e2e6"/>
    </g>
    <g transform="translate(6085 4331)">
      <circle id="Ellipse_292-160" data-name="Ellipse 292" cx="3" cy="3" r="3" transform="translate(-5955 -4045)" fill="#b0e2e6"/>
    </g>
    <g transform="translate(6111 4331)">
      <circle id="Ellipse_292-161" data-name="Ellipse 292" cx="3" cy="3" r="3" transform="translate(-5955 -4045)" fill="#b0e2e6"/>
    </g>
    <g transform="translate(6137 4331)">
      <circle id="Ellipse_292-162" data-name="Ellipse 292" cx="3" cy="3" r="3" transform="translate(-5955 -4045)" fill="#b0e2e6"/>
    </g>
    <g transform="translate(6163 4331)">
      <circle id="Ellipse_292-163" data-name="Ellipse 292" cx="3" cy="3" r="3" transform="translate(-5955 -4045)" fill="#b0e2e6"/>
    </g>
    <g transform="translate(6189 4331)">
      <circle id="Ellipse_292-164" data-name="Ellipse 292" cx="3" cy="3" r="3" transform="translate(-5955 -4045)" fill="#b0e2e6"/>
    </g>
    <g transform="translate(6215 4331)">
      <circle id="Ellipse_292-165" data-name="Ellipse 292" cx="3" cy="3" r="3" transform="translate(-5955 -4045)" fill="#b0e2e6"/>
    </g>
    <g transform="translate(6241 4331)">
      <circle id="Ellipse_292-166" data-name="Ellipse 292" cx="3" cy="3" r="3" transform="translate(-5955 -4045)" fill="#b0e2e6"/>
    </g>
    <g transform="translate(6267 4331)">
      <circle id="Ellipse_292-167" data-name="Ellipse 292" cx="3" cy="3" r="3" transform="translate(-5955 -4045)" fill="#b0e2e6"/>
    </g>
    <g transform="translate(6293 4331)">
      <circle id="Ellipse_292-168" data-name="Ellipse 292" cx="3" cy="3" r="3" transform="translate(-5955 -4045)" fill="#b0e2e6"/>
    </g>
    <g transform="translate(5955 4357)">
      <circle id="Ellipse_292-169" data-name="Ellipse 292" cx="3" cy="3" r="3" transform="translate(-5955 -4045)" fill="#b0e2e6"/>
    </g>
    <g transform="translate(5981 4357)">
      <circle id="Ellipse_292-170" data-name="Ellipse 292" cx="3" cy="3" r="3" transform="translate(-5955 -4045)" fill="#b0e2e6"/>
    </g>
    <g transform="translate(6007 4357)">
      <circle id="Ellipse_292-171" data-name="Ellipse 292" cx="3" cy="3" r="3" transform="translate(-5955 -4045)" fill="#b0e2e6"/>
    </g>
    <g transform="translate(6033 4357)">
      <circle id="Ellipse_292-172" data-name="Ellipse 292" cx="3" cy="3" r="3" transform="translate(-5955 -4045)" fill="#b0e2e6"/>
    </g>
    <g transform="translate(6059 4357)">
      <circle id="Ellipse_292-173" data-name="Ellipse 292" cx="3" cy="3" r="3" transform="translate(-5955 -4045)" fill="#b0e2e6"/>
    </g>
    <g transform="translate(6085 4357)">
      <circle id="Ellipse_292-174" data-name="Ellipse 292" cx="3" cy="3" r="3" transform="translate(-5955 -4045)" fill="#b0e2e6"/>
    </g>
    <g transform="translate(6111 4357)">
      <circle id="Ellipse_292-175" data-name="Ellipse 292" cx="3" cy="3" r="3" transform="translate(-5955 -4045)" fill="#b0e2e6"/>
    </g>
    <g transform="translate(6137 4357)">
      <circle id="Ellipse_292-176" data-name="Ellipse 292" cx="3" cy="3" r="3" transform="translate(-5955 -4045)" fill="#b0e2e6"/>
    </g>
    <g transform="translate(6163 4357)">
      <circle id="Ellipse_292-177" data-name="Ellipse 292" cx="3" cy="3" r="3" transform="translate(-5955 -4045)" fill="#b0e2e6"/>
    </g>
    <g transform="translate(6189 4357)">
      <circle id="Ellipse_292-178" data-name="Ellipse 292" cx="3" cy="3" r="3" transform="translate(-5955 -4045)" fill="#b0e2e6"/>
    </g>
    <g transform="translate(6215 4357)">
      <circle id="Ellipse_292-179" data-name="Ellipse 292" cx="3" cy="3" r="3" transform="translate(-5955 -4045)" fill="#b0e2e6"/>
    </g>
    <g transform="translate(6241 4357)">
      <circle id="Ellipse_292-180" data-name="Ellipse 292" cx="3" cy="3" r="3" transform="translate(-5955 -4045)" fill="#b0e2e6"/>
    </g>
    <g transform="translate(6267 4357)">
      <circle id="Ellipse_292-181" data-name="Ellipse 292" cx="3" cy="3" r="3" transform="translate(-5955 -4045)" fill="#b0e2e6"/>
    </g>
    <g transform="translate(6293 4357)">
      <circle id="Ellipse_292-182" data-name="Ellipse 292" cx="3" cy="3" r="3" transform="translate(-5955 -4045)" fill="#b0e2e6"/>
    </g>
  </g>
</svg>
