<svg xmlns="http://www.w3.org/2000/svg" width="82.313" height="6.94" viewBox="0 0 82.313 6.94">
  <g id="Groupe_382" data-name="Groupe 382" transform="translate(-608.194 -1597.765)">
    <path id="Tracé_10" data-name="Tracé 10" d="M615.3,1601.787c4.055-.45,8.484-5.509,11.595-4.89s6.611,5.372,8.905,4.89" transform="translate(-7 1.901)" fill="none" stroke="#ffce00" stroke-width="2"/>
    <path id="Tracé_11" data-name="Tracé 11" d="M615.3,1601.787c4.055-.45,8.484-5.509,11.595-4.89s6.611,5.372,8.905,4.89" transform="translate(-7 1.901)" fill="none" stroke="#ffce00" stroke-width="2"/>
    <path id="Tracé_12" data-name="Tracé 12" d="M615.3,1601.787c4.067-.45,8.51-5.509,11.63-4.89s6.631,5.372,8.932,4.89" transform="translate(13.437 1.901)" fill="none" stroke="#ffce00" stroke-width="2"/>
    <path id="Tracé_13" data-name="Tracé 13" d="M615.3,1601.787c4.067-.45,8.51-5.509,11.63-4.89s6.631,5.372,8.932,4.89" transform="translate(13.437 1.901)" fill="none" stroke="#ffce00" stroke-width="2"/>
    <path id="Tracé_14" data-name="Tracé 14" d="M615.3,1601.787c4.055-.45,8.484-5.509,11.595-4.89s6.611,5.372,8.905,4.89" transform="translate(33.841 1.901)" fill="none" stroke="#ffce00" stroke-width="2"/>
    <path id="Tracé_15" data-name="Tracé 15" d="M615.3,1601.787c4.1-.45,8.581-5.509,11.728-4.89s6.687,5.372,9.008,4.89" transform="translate(54.264 1.901)" fill="none" stroke="#ffce00" stroke-width="2"/>
  </g>
</svg>
