<svg xmlns="http://www.w3.org/2000/svg" width="110.808" height="7.942" viewBox="0 0 110.808 7.942">
  <g id="Groupe_382" data-name="Groupe 382" transform="translate(-608.181 -1597.265)">
    <path id="Tracé_10" data-name="Tracé 10" d="M615.3,1601.787c5.462-.45,11.428-5.509,15.619-4.89s8.9,5.372,12,4.89" transform="translate(-7 1.901)" fill="none" stroke="#ffce00" stroke-width="3"/>
    <path id="Tracé_11" data-name="Tracé 11" d="M615.3,1601.787c5.462-.45,11.428-5.509,15.619-4.89s8.9,5.372,12,4.89" transform="translate(-7 1.901)" fill="none" stroke="#ffce00" stroke-width="3"/>
    <path id="Tracé_12" data-name="Tracé 12" d="M615.3,1601.787c5.478-.45,11.463-5.509,15.666-4.89s8.932,5.372,12.032,4.89" transform="translate(20.53 1.901)" fill="none" stroke="#ffce00" stroke-width="3"/>
    <path id="Tracé_13" data-name="Tracé 13" d="M615.3,1601.787c5.478-.45,11.463-5.509,15.666-4.89s8.932,5.372,12.032,4.89" transform="translate(20.53 1.901)" fill="none" stroke="#ffce00" stroke-width="3"/>
    <path id="Tracé_14" data-name="Tracé 14" d="M615.3,1601.787c5.462-.45,11.428-5.509,15.619-4.89s8.9,5.372,12,4.89" transform="translate(48.014 1.901)" fill="none" stroke="#ffce00" stroke-width="3"/>
    <path id="Tracé_15" data-name="Tracé 15" d="M615.3,1601.787c5.524-.45,11.559-5.509,15.8-4.89s9.007,5.372,12.133,4.89" transform="translate(75.525 1.901)" fill="none" stroke="#ffce00" stroke-width="3"/>
  </g>
</svg>
