<svg xmlns="http://www.w3.org/2000/svg" width="1642.957" height="189.323" viewBox="0 0 1642.957 189.323">
  <g id="Groupe_471" data-name="Groupe 471" transform="translate(431.563 -109.008)">
    <g id="Groupe_467" data-name="Groupe 467" transform="translate(-431.563 109.008)">
      <path id="Tracé_486" data-name="Tracé 486" d="M923.857-104.172c-22.817,0-22.817-15.761-45.634-15.761s-22.817,15.761-45.634,15.761-22.818-15.761-45.637-15.761-22.818,15.761-45.638,15.761-22.818-15.761-45.636-15.761-22.819,15.761-45.639,15.761-22.818-15.761-45.635-15.761-22.818,15.761-45.635,15.761-22.819-15.761-45.639-15.761-22.819,15.761-45.638,15.761-22.822-15.761-45.644-15.761-22.821,15.761-45.644,15.761-22.817-15.761-45.633-15.761-22.818,15.761-45.635,15.761-22.818-15.761-45.637-15.761-22.819,15.761-45.638,15.761-22.818-15.761-45.636-15.761-22.819,15.761-45.638,15.761-22.818-15.761-45.636-15.761-22.819,15.761-45.636,15.761S-11.7-119.933-34.523-119.933s-22.818,15.761-45.637,15.761-22.821-15.761-45.644-15.761-22.821,15.761-45.643,15.761-22.818-15.761-45.634-15.761-22.818,15.761-45.634,15.761-22.818-15.761-45.636-15.761-22.82,15.761-45.639,15.761-22.818-15.761-45.637-15.761-22.818,15.761-45.637,15.761-22.819-15.761-45.637-15.761-22.818,15.761-45.636,15.761-22.819-15.761-45.638-15.761-22.819,15.761-45.638,15.761-22.821-15.761-45.643-15.761-22.822,15.761-45.644,15.761V69.39H923.857Z" transform="translate(719.099 119.933)" fill="#46b3bc"/>
    </g>
  </g>
</svg>
